<?xml version="1.0" encoding="UTF-8" standalone="no"?>
<!DOCTYPE svg PUBLIC "-//W3C//DTD SVG 1.1//EN" "http://www.w3.org/Graphics/SVG/1.1/DTD/svg11.dtd">
<svg width="100%" height="100%" viewBox="0 0 3508 1781" version="1.1" xmlns="http://www.w3.org/2000/svg" xmlns:xlink="http://www.w3.org/1999/xlink" xml:space="preserve" xmlns:serif="http://www.serif.com/" style="fill-rule:evenodd;clip-rule:evenodd;stroke-linecap:round;stroke-linejoin:round;stroke-miterlimit:1.5;">
    <g id="Artboard1" transform="matrix(1,0,0,1,0,-356.988)">
        <rect x="0" y="356.988" width="3507.87" height="1780.75" style="fill:none;"/>
        <g transform="matrix(1,0,0,1,-43.1823,15.5372)">
            <path d="M2993.83,616.824L2993.83,1846.87C2993.83,1884.58 2963.21,1915.2 2925.49,1915.2L522.73,1915.2C485.014,1915.2 454.394,1884.58 454.394,1846.87L454.394,616.824C454.394,579.109 485.014,548.489 522.73,548.489L2925.49,548.489C2963.21,548.489 2993.83,579.109 2993.83,616.824Z" style="fill:rgb(76,175,80);"/>
        </g>
        <g transform="matrix(1,0,0,1,481.693,116.404)">
            <g transform="matrix(62.5,0,0,62.5,2514.54,1142.29)">
                <path d="M0.04,-0C0.033,-0 0.028,-0.002 0.024,-0.007C0.02,-0.011 0.019,-0.017 0.02,-0.024L0.159,-0.675C0.16,-0.683 0.164,-0.689 0.169,-0.693C0.175,-0.698 0.181,-0.7 0.188,-0.7L0.628,-0.7C0.635,-0.7 0.641,-0.698 0.644,-0.693C0.648,-0.689 0.649,-0.683 0.647,-0.675L0.633,-0.609C0.632,-0.602 0.629,-0.597 0.623,-0.592C0.618,-0.587 0.611,-0.585 0.604,-0.585L0.275,-0.585L0.237,-0.408L0.544,-0.408C0.551,-0.408 0.556,-0.406 0.56,-0.401C0.563,-0.397 0.565,-0.391 0.563,-0.384L0.55,-0.322C0.549,-0.315 0.545,-0.309 0.54,-0.305C0.534,-0.3 0.528,-0.298 0.521,-0.298L0.214,-0.298L0.174,-0.115L0.512,-0.115C0.519,-0.115 0.524,-0.113 0.528,-0.108C0.531,-0.103 0.532,-0.098 0.531,-0.09L0.517,-0.024C0.515,-0.017 0.512,-0.011 0.507,-0.007C0.501,-0.002 0.495,-0 0.488,-0L0.04,-0Z" style="fill:rgb(76,175,80);fill-rule:nonzero;"/>
            </g>
            <g transform="matrix(62.5,0,0,62.5,2553.38,1142.29)">
                <path d="M-0.017,-0C-0.026,-0 -0.032,-0.004 -0.035,-0.013C-0.038,-0.021 -0.037,-0.029 -0.03,-0.035L0.194,-0.27L0.08,-0.487C0.077,-0.494 0.077,-0.501 0.081,-0.509C0.085,-0.516 0.092,-0.52 0.101,-0.52L0.184,-0.52C0.192,-0.52 0.198,-0.518 0.201,-0.514C0.205,-0.51 0.208,-0.507 0.209,-0.503L0.291,-0.352L0.439,-0.503C0.442,-0.507 0.446,-0.51 0.451,-0.514C0.456,-0.518 0.463,-0.52 0.473,-0.52L0.561,-0.52C0.57,-0.52 0.576,-0.516 0.579,-0.508C0.582,-0.499 0.58,-0.491 0.573,-0.484L0.357,-0.257L0.473,-0.033C0.477,-0.026 0.477,-0.019 0.474,-0.011C0.47,-0.004 0.463,-0 0.453,-0L0.368,-0C0.36,-0 0.354,-0.002 0.351,-0.005C0.347,-0.009 0.344,-0.012 0.342,-0.016L0.258,-0.172L0.107,-0.016C0.104,-0.013 0.101,-0.01 0.096,-0.006C0.091,-0.002 0.084,-0 0.074,-0L-0.017,-0Z" style="fill:rgb(76,175,80);fill-rule:nonzero;"/>
            </g>
            <g transform="matrix(62.5,0,0,62.5,2588.59,1142.29)">
                <path d="M-0.012,0.19C-0.019,0.19 -0.024,0.188 -0.028,0.183C-0.031,0.179 -0.033,0.173 -0.031,0.166L0.11,-0.496C0.111,-0.503 0.114,-0.509 0.12,-0.513C0.125,-0.518 0.131,-0.52 0.138,-0.52L0.218,-0.52C0.225,-0.52 0.23,-0.518 0.233,-0.513C0.237,-0.509 0.238,-0.503 0.237,-0.496L0.228,-0.456C0.249,-0.477 0.272,-0.495 0.297,-0.509C0.322,-0.523 0.354,-0.53 0.395,-0.53C0.43,-0.53 0.459,-0.524 0.484,-0.512C0.508,-0.501 0.527,-0.484 0.541,-0.463C0.555,-0.442 0.565,-0.417 0.569,-0.388C0.573,-0.359 0.572,-0.327 0.566,-0.292C0.565,-0.281 0.563,-0.27 0.56,-0.26C0.558,-0.25 0.556,-0.239 0.552,-0.227C0.544,-0.194 0.533,-0.163 0.518,-0.134C0.503,-0.106 0.486,-0.08 0.465,-0.059C0.443,-0.037 0.419,-0.02 0.391,-0.008C0.362,0.004 0.331,0.01 0.295,0.01C0.257,0.01 0.227,0.004 0.203,-0.009C0.179,-0.022 0.162,-0.04 0.151,-0.061L0.102,0.166C0.101,0.173 0.097,0.179 0.092,0.183C0.086,0.188 0.08,0.19 0.073,0.19L-0.012,0.19ZM0.273,-0.097C0.299,-0.097 0.322,-0.103 0.341,-0.115C0.36,-0.128 0.375,-0.144 0.388,-0.164C0.4,-0.185 0.41,-0.206 0.417,-0.23C0.42,-0.24 0.423,-0.25 0.425,-0.26C0.427,-0.27 0.429,-0.28 0.43,-0.29C0.433,-0.314 0.434,-0.336 0.431,-0.356C0.428,-0.376 0.421,-0.392 0.409,-0.405C0.396,-0.417 0.376,-0.423 0.35,-0.423C0.322,-0.423 0.298,-0.417 0.278,-0.404C0.257,-0.391 0.24,-0.375 0.227,-0.356C0.215,-0.336 0.206,-0.316 0.2,-0.295C0.197,-0.283 0.194,-0.27 0.191,-0.257C0.188,-0.243 0.186,-0.231 0.184,-0.218C0.18,-0.198 0.181,-0.179 0.184,-0.161C0.188,-0.142 0.197,-0.127 0.212,-0.115C0.226,-0.103 0.246,-0.097 0.273,-0.097Z" style="fill:rgb(76,175,80);fill-rule:nonzero;"/>
            </g>
            <g transform="matrix(62.5,0,0,62.5,2626.86,1142.29)">
                <path d="M0.028,-0C0.021,-0 0.016,-0.002 0.012,-0.007C0.009,-0.011 0.007,-0.017 0.009,-0.024L0.15,-0.686C0.151,-0.693 0.155,-0.699 0.16,-0.703C0.165,-0.708 0.171,-0.71 0.178,-0.71L0.261,-0.71C0.268,-0.71 0.273,-0.708 0.277,-0.703C0.281,-0.699 0.282,-0.693 0.281,-0.686L0.14,-0.024C0.138,-0.017 0.135,-0.011 0.13,-0.007C0.124,-0.002 0.118,-0 0.111,-0L0.028,-0Z" style="fill:rgb(76,175,80);fill-rule:nonzero;"/>
            </g>
            <g transform="matrix(62.5,0,0,62.5,2643.44,1142.29)">
                <path d="M0.237,0.01C0.186,0.01 0.144,0.001 0.11,-0.018C0.077,-0.037 0.053,-0.063 0.039,-0.097C0.024,-0.131 0.021,-0.171 0.028,-0.216C0.03,-0.228 0.033,-0.243 0.036,-0.26C0.04,-0.278 0.044,-0.292 0.047,-0.304C0.059,-0.35 0.078,-0.39 0.103,-0.423C0.128,-0.457 0.159,-0.483 0.199,-0.502C0.238,-0.521 0.284,-0.53 0.337,-0.53C0.388,-0.53 0.43,-0.521 0.463,-0.502C0.497,-0.483 0.521,-0.457 0.536,-0.423C0.551,-0.39 0.554,-0.35 0.547,-0.304C0.544,-0.292 0.541,-0.278 0.538,-0.26C0.534,-0.243 0.531,-0.228 0.528,-0.216C0.516,-0.171 0.498,-0.131 0.473,-0.097C0.449,-0.063 0.417,-0.037 0.378,-0.018C0.339,0.001 0.292,0.01 0.237,0.01ZM0.247,-0.089C0.283,-0.089 0.313,-0.101 0.339,-0.123C0.364,-0.145 0.382,-0.178 0.393,-0.221C0.396,-0.231 0.399,-0.244 0.402,-0.26C0.405,-0.276 0.408,-0.289 0.41,-0.299C0.417,-0.342 0.414,-0.375 0.401,-0.397C0.388,-0.419 0.363,-0.431 0.327,-0.431C0.292,-0.431 0.261,-0.419 0.236,-0.397C0.211,-0.375 0.193,-0.342 0.182,-0.299C0.179,-0.289 0.176,-0.276 0.173,-0.26C0.169,-0.244 0.167,-0.231 0.165,-0.221C0.158,-0.178 0.161,-0.145 0.173,-0.123C0.186,-0.101 0.211,-0.089 0.247,-0.089Z" style="fill:rgb(76,175,80);fill-rule:nonzero;"/>
            </g>
            <g transform="matrix(62.5,0,0,62.5,2680.34,1142.29)">
                <path d="M0.028,-0C0.021,-0 0.016,-0.002 0.012,-0.007C0.009,-0.011 0.007,-0.017 0.009,-0.024L0.109,-0.495C0.11,-0.502 0.114,-0.508 0.119,-0.513C0.125,-0.518 0.131,-0.52 0.138,-0.52L0.219,-0.52C0.226,-0.52 0.231,-0.518 0.235,-0.513C0.238,-0.508 0.24,-0.502 0.238,-0.495L0.229,-0.454C0.245,-0.475 0.266,-0.491 0.29,-0.503C0.315,-0.514 0.345,-0.52 0.38,-0.52L0.429,-0.52C0.436,-0.52 0.441,-0.518 0.445,-0.513C0.448,-0.509 0.449,-0.503 0.448,-0.496L0.433,-0.424C0.431,-0.417 0.428,-0.412 0.422,-0.407C0.417,-0.403 0.411,-0.4 0.404,-0.4L0.326,-0.4C0.294,-0.4 0.267,-0.391 0.246,-0.373C0.224,-0.355 0.21,-0.331 0.203,-0.299L0.144,-0.024C0.143,-0.017 0.139,-0.011 0.134,-0.007C0.128,-0.002 0.122,-0 0.115,-0L0.028,-0Z" style="fill:rgb(76,175,80);fill-rule:nonzero;"/>
            </g>
            <g transform="matrix(62.5,0,0,62.5,2706.51,1142.29)">
                <path d="M0.199,0.01C0.165,0.01 0.135,0.004 0.111,-0.008C0.087,-0.019 0.068,-0.036 0.054,-0.057C0.041,-0.078 0.032,-0.103 0.028,-0.132C0.024,-0.161 0.025,-0.193 0.03,-0.228C0.033,-0.24 0.035,-0.251 0.037,-0.26C0.039,-0.27 0.042,-0.281 0.044,-0.293C0.053,-0.326 0.064,-0.357 0.079,-0.386C0.093,-0.414 0.11,-0.44 0.131,-0.461C0.152,-0.483 0.177,-0.5 0.206,-0.512C0.234,-0.524 0.267,-0.53 0.303,-0.53C0.345,-0.53 0.376,-0.524 0.398,-0.511C0.419,-0.498 0.436,-0.482 0.448,-0.463L0.455,-0.496C0.456,-0.503 0.459,-0.509 0.465,-0.513C0.47,-0.518 0.476,-0.52 0.483,-0.52L0.562,-0.52C0.569,-0.52 0.574,-0.518 0.578,-0.513C0.582,-0.509 0.583,-0.503 0.582,-0.496L0.481,-0.024C0.48,-0.017 0.477,-0.011 0.471,-0.007C0.466,-0.002 0.46,-0 0.453,-0L0.374,-0C0.367,-0 0.362,-0.002 0.358,-0.007C0.354,-0.011 0.353,-0.017 0.354,-0.024L0.362,-0.061C0.342,-0.041 0.32,-0.023 0.296,-0.01C0.272,0.003 0.239,0.01 0.199,0.01ZM0.244,-0.097C0.272,-0.097 0.296,-0.103 0.316,-0.116C0.336,-0.129 0.352,-0.145 0.364,-0.164C0.377,-0.184 0.386,-0.204 0.391,-0.225C0.394,-0.237 0.397,-0.25 0.4,-0.264C0.403,-0.277 0.405,-0.29 0.407,-0.302C0.411,-0.322 0.411,-0.341 0.408,-0.359C0.404,-0.378 0.396,-0.393 0.382,-0.405C0.368,-0.417 0.348,-0.423 0.321,-0.423C0.295,-0.423 0.273,-0.417 0.254,-0.405C0.236,-0.392 0.221,-0.376 0.209,-0.356C0.197,-0.336 0.188,-0.314 0.18,-0.29C0.178,-0.28 0.175,-0.27 0.173,-0.26C0.171,-0.25 0.169,-0.24 0.168,-0.23C0.164,-0.206 0.164,-0.184 0.165,-0.164C0.167,-0.144 0.174,-0.128 0.187,-0.115C0.199,-0.103 0.218,-0.097 0.244,-0.097Z" style="fill:rgb(76,175,80);fill-rule:nonzero;"/>
            </g>
            <g transform="matrix(62.5,0,0,62.5,2744.38,1142.29)">
                <path d="M0.244,-0C0.199,-0 0.164,-0.007 0.138,-0.021C0.113,-0.035 0.097,-0.056 0.089,-0.084C0.082,-0.111 0.083,-0.146 0.091,-0.187L0.14,-0.414L0.061,-0.414C0.055,-0.414 0.049,-0.417 0.046,-0.421C0.042,-0.426 0.041,-0.432 0.042,-0.439L0.054,-0.496C0.055,-0.503 0.059,-0.509 0.065,-0.513C0.07,-0.518 0.077,-0.52 0.084,-0.52L0.162,-0.52L0.198,-0.686C0.199,-0.693 0.202,-0.699 0.208,-0.703C0.213,-0.708 0.219,-0.71 0.226,-0.71L0.307,-0.71C0.314,-0.71 0.319,-0.708 0.323,-0.703C0.327,-0.699 0.328,-0.693 0.327,-0.686L0.291,-0.52L0.416,-0.52C0.423,-0.52 0.428,-0.518 0.432,-0.513C0.435,-0.509 0.436,-0.503 0.435,-0.496L0.423,-0.439C0.421,-0.432 0.418,-0.426 0.413,-0.421C0.407,-0.417 0.401,-0.414 0.394,-0.414L0.269,-0.414L0.223,-0.197C0.219,-0.179 0.217,-0.164 0.216,-0.15C0.216,-0.137 0.219,-0.127 0.227,-0.12C0.234,-0.113 0.247,-0.11 0.266,-0.11L0.338,-0.11C0.345,-0.11 0.35,-0.107 0.354,-0.103C0.357,-0.098 0.358,-0.093 0.357,-0.086L0.344,-0.024C0.342,-0.017 0.339,-0.011 0.334,-0.007C0.328,-0.002 0.322,-0 0.315,-0L0.244,-0Z" style="fill:rgb(76,175,80);fill-rule:nonzero;"/>
            </g>
            <g transform="matrix(62.5,0,0,62.5,2770.84,1142.29)">
                <path d="M0.237,0.01C0.186,0.01 0.144,0.001 0.11,-0.018C0.077,-0.037 0.053,-0.063 0.039,-0.097C0.024,-0.131 0.021,-0.171 0.028,-0.216C0.03,-0.228 0.033,-0.243 0.036,-0.26C0.04,-0.278 0.044,-0.292 0.047,-0.304C0.059,-0.35 0.078,-0.39 0.103,-0.423C0.128,-0.457 0.159,-0.483 0.199,-0.502C0.238,-0.521 0.284,-0.53 0.337,-0.53C0.388,-0.53 0.43,-0.521 0.463,-0.502C0.497,-0.483 0.521,-0.457 0.536,-0.423C0.551,-0.39 0.554,-0.35 0.547,-0.304C0.544,-0.292 0.541,-0.278 0.538,-0.26C0.534,-0.243 0.531,-0.228 0.528,-0.216C0.516,-0.171 0.498,-0.131 0.473,-0.097C0.449,-0.063 0.417,-0.037 0.378,-0.018C0.339,0.001 0.292,0.01 0.237,0.01ZM0.247,-0.089C0.283,-0.089 0.313,-0.101 0.339,-0.123C0.364,-0.145 0.382,-0.178 0.393,-0.221C0.396,-0.231 0.399,-0.244 0.402,-0.26C0.405,-0.276 0.408,-0.289 0.41,-0.299C0.417,-0.342 0.414,-0.375 0.401,-0.397C0.388,-0.419 0.363,-0.431 0.327,-0.431C0.292,-0.431 0.261,-0.419 0.236,-0.397C0.211,-0.375 0.193,-0.342 0.182,-0.299C0.179,-0.289 0.176,-0.276 0.173,-0.26C0.169,-0.244 0.167,-0.231 0.165,-0.221C0.158,-0.178 0.161,-0.145 0.173,-0.123C0.186,-0.101 0.211,-0.089 0.247,-0.089Z" style="fill:rgb(76,175,80);fill-rule:nonzero;"/>
            </g>
            <g transform="matrix(62.5,0,0,62.5,2807.75,1142.29)">
                <path d="M0.028,-0C0.021,-0 0.016,-0.002 0.012,-0.007C0.009,-0.011 0.007,-0.017 0.009,-0.024L0.109,-0.495C0.11,-0.502 0.114,-0.508 0.119,-0.513C0.125,-0.518 0.131,-0.52 0.138,-0.52L0.219,-0.52C0.226,-0.52 0.231,-0.518 0.235,-0.513C0.238,-0.508 0.24,-0.502 0.238,-0.495L0.229,-0.454C0.245,-0.475 0.266,-0.491 0.29,-0.503C0.315,-0.514 0.345,-0.52 0.38,-0.52L0.429,-0.52C0.436,-0.52 0.441,-0.518 0.445,-0.513C0.448,-0.509 0.449,-0.503 0.448,-0.496L0.433,-0.424C0.431,-0.417 0.428,-0.412 0.422,-0.407C0.417,-0.403 0.411,-0.4 0.404,-0.4L0.326,-0.4C0.294,-0.4 0.267,-0.391 0.246,-0.373C0.224,-0.355 0.21,-0.331 0.203,-0.299L0.144,-0.024C0.143,-0.017 0.139,-0.011 0.134,-0.007C0.128,-0.002 0.122,-0 0.115,-0L0.028,-0Z" style="fill:rgb(76,175,80);fill-rule:nonzero;"/>
            </g>
            <g transform="matrix(62.5,0,0,62.5,2833.91,1142.29)">
                <path d="M0.056,0.19C0.048,0.19 0.043,0.187 0.04,0.18C0.037,0.173 0.039,0.166 0.044,0.158L0.166,-0.034L0.069,-0.492C0.067,-0.499 0.069,-0.506 0.073,-0.511C0.077,-0.517 0.084,-0.52 0.094,-0.52L0.169,-0.52C0.177,-0.52 0.183,-0.518 0.186,-0.514C0.19,-0.511 0.192,-0.506 0.192,-0.501L0.259,-0.173L0.467,-0.501C0.47,-0.506 0.474,-0.51 0.479,-0.514C0.484,-0.518 0.491,-0.52 0.499,-0.52L0.585,-0.52C0.592,-0.52 0.597,-0.517 0.601,-0.511C0.604,-0.505 0.604,-0.498 0.599,-0.49L0.172,0.171C0.169,0.176 0.165,0.18 0.16,0.184C0.155,0.188 0.148,0.19 0.14,0.19L0.056,0.19Z" style="fill:rgb(76,175,80);fill-rule:nonzero;"/>
            </g>
            <g transform="matrix(62.5,0,0,62.5,2870.13,1142.29)">
            </g>
        </g>
        <g transform="matrix(1,0,0,1,-2435.4,127.654)">
            <g transform="matrix(62.5,0,0,62.5,2586.54,1142.29)">
                <path d="M0.299,0.01C0.238,0.01 0.188,-0.001 0.149,-0.022C0.11,-0.043 0.084,-0.074 0.069,-0.115C0.054,-0.155 0.051,-0.203 0.061,-0.259C0.066,-0.288 0.072,-0.319 0.079,-0.352C0.087,-0.384 0.094,-0.416 0.101,-0.445C0.114,-0.5 0.137,-0.548 0.169,-0.587C0.202,-0.627 0.242,-0.657 0.29,-0.678C0.338,-0.699 0.392,-0.71 0.452,-0.71C0.501,-0.71 0.542,-0.704 0.576,-0.691C0.61,-0.678 0.637,-0.661 0.657,-0.641C0.677,-0.62 0.691,-0.598 0.698,-0.575C0.705,-0.552 0.707,-0.53 0.704,-0.51C0.703,-0.504 0.7,-0.499 0.695,-0.495C0.69,-0.491 0.685,-0.489 0.678,-0.489L0.575,-0.489C0.569,-0.489 0.564,-0.49 0.561,-0.493C0.559,-0.495 0.556,-0.499 0.554,-0.505C0.553,-0.519 0.548,-0.532 0.539,-0.546C0.531,-0.56 0.518,-0.572 0.5,-0.581C0.482,-0.59 0.458,-0.595 0.428,-0.595C0.383,-0.595 0.344,-0.583 0.312,-0.559C0.279,-0.535 0.256,-0.495 0.243,-0.44C0.236,-0.411 0.229,-0.382 0.223,-0.352C0.216,-0.323 0.21,-0.294 0.205,-0.264C0.195,-0.208 0.202,-0.167 0.224,-0.142C0.247,-0.117 0.28,-0.105 0.326,-0.105C0.356,-0.105 0.384,-0.11 0.41,-0.121C0.436,-0.132 0.458,-0.149 0.477,-0.171C0.495,-0.194 0.508,-0.223 0.515,-0.258L0.522,-0.289L0.399,-0.289C0.393,-0.289 0.387,-0.291 0.384,-0.296C0.381,-0.301 0.379,-0.307 0.381,-0.314L0.392,-0.367C0.393,-0.374 0.397,-0.38 0.402,-0.385C0.408,-0.389 0.414,-0.392 0.421,-0.392L0.66,-0.392C0.667,-0.392 0.673,-0.389 0.676,-0.385C0.68,-0.38 0.681,-0.374 0.679,-0.367L0.657,-0.262C0.646,-0.206 0.623,-0.158 0.59,-0.117C0.557,-0.076 0.515,-0.045 0.466,-0.023C0.416,-0.001 0.361,0.01 0.299,0.01Z" style="fill:rgb(76,175,80);fill-rule:nonzero;"/>
            </g>
            <g transform="matrix(62.5,0,0,62.5,2630.3,1142.29)">
                <path d="M0.204,0.01C0.161,0.01 0.125,0.001 0.098,-0.017C0.071,-0.035 0.053,-0.061 0.043,-0.095C0.034,-0.129 0.035,-0.169 0.044,-0.215L0.104,-0.496C0.105,-0.503 0.108,-0.509 0.114,-0.513C0.12,-0.518 0.126,-0.52 0.133,-0.52L0.221,-0.52C0.228,-0.52 0.233,-0.518 0.236,-0.513C0.24,-0.509 0.241,-0.503 0.239,-0.496L0.181,-0.221C0.175,-0.194 0.173,-0.171 0.176,-0.153C0.178,-0.134 0.185,-0.12 0.198,-0.111C0.211,-0.102 0.23,-0.097 0.257,-0.097C0.293,-0.097 0.324,-0.108 0.351,-0.13C0.378,-0.152 0.395,-0.182 0.403,-0.221L0.462,-0.496C0.463,-0.503 0.466,-0.509 0.472,-0.513C0.478,-0.518 0.484,-0.52 0.491,-0.52L0.578,-0.52C0.585,-0.52 0.59,-0.518 0.594,-0.513C0.597,-0.509 0.598,-0.503 0.597,-0.496L0.497,-0.024C0.495,-0.017 0.492,-0.011 0.487,-0.007C0.481,-0.002 0.475,-0 0.468,-0L0.387,-0C0.38,-0 0.375,-0.002 0.371,-0.007C0.367,-0.011 0.366,-0.017 0.368,-0.024L0.376,-0.065C0.362,-0.05 0.346,-0.036 0.331,-0.025C0.315,-0.014 0.298,-0.005 0.278,0.001C0.258,0.007 0.233,0.01 0.204,0.01Z" style="fill:rgb(76,175,80);fill-rule:nonzero;"/>
            </g>
            <g transform="matrix(62.5,0,0,62.5,2669.13,1142.29)">
                <path d="M0.028,-0C0.021,-0 0.016,-0.002 0.012,-0.007C0.009,-0.011 0.007,-0.017 0.009,-0.024L0.109,-0.496C0.11,-0.503 0.114,-0.509 0.119,-0.513C0.125,-0.518 0.131,-0.52 0.138,-0.52L0.221,-0.52C0.228,-0.52 0.233,-0.518 0.237,-0.513C0.24,-0.509 0.241,-0.503 0.24,-0.496L0.14,-0.024C0.138,-0.017 0.135,-0.011 0.13,-0.007C0.124,-0.002 0.118,-0 0.111,-0L0.028,-0ZM0.152,-0.606C0.146,-0.606 0.14,-0.608 0.137,-0.613C0.133,-0.617 0.132,-0.623 0.133,-0.63L0.149,-0.702C0.15,-0.709 0.153,-0.714 0.159,-0.719C0.164,-0.724 0.171,-0.726 0.178,-0.726L0.269,-0.726C0.276,-0.726 0.281,-0.724 0.285,-0.719C0.289,-0.714 0.29,-0.709 0.289,-0.702L0.273,-0.63C0.272,-0.623 0.268,-0.617 0.263,-0.613C0.257,-0.608 0.251,-0.606 0.244,-0.606L0.152,-0.606Z" style="fill:rgb(76,175,80);fill-rule:nonzero;"/>
            </g>
            <g transform="matrix(62.5,0,0,62.5,2685.64,1142.29)">
                <path d="M0.202,0.01C0.167,0.01 0.137,0.004 0.113,-0.008C0.088,-0.019 0.069,-0.036 0.055,-0.057C0.041,-0.078 0.032,-0.103 0.028,-0.132C0.024,-0.161 0.024,-0.193 0.03,-0.228C0.032,-0.24 0.034,-0.251 0.036,-0.26C0.038,-0.27 0.041,-0.281 0.044,-0.293C0.052,-0.326 0.064,-0.357 0.078,-0.386C0.093,-0.414 0.111,-0.44 0.132,-0.461C0.153,-0.483 0.178,-0.5 0.206,-0.512C0.234,-0.524 0.266,-0.53 0.301,-0.53C0.339,-0.53 0.37,-0.524 0.394,-0.511C0.418,-0.499 0.435,-0.483 0.447,-0.464L0.495,-0.686C0.496,-0.693 0.499,-0.699 0.505,-0.703C0.51,-0.708 0.516,-0.71 0.523,-0.71L0.608,-0.71C0.615,-0.71 0.621,-0.708 0.624,-0.703C0.628,-0.699 0.629,-0.693 0.628,-0.686L0.487,-0.024C0.485,-0.017 0.482,-0.011 0.477,-0.007C0.471,-0.002 0.465,-0 0.458,-0L0.379,-0C0.372,-0 0.367,-0.002 0.363,-0.007C0.359,-0.011 0.358,-0.017 0.36,-0.024L0.368,-0.061C0.347,-0.041 0.324,-0.023 0.299,-0.01C0.274,0.003 0.242,0.01 0.202,0.01ZM0.247,-0.097C0.274,-0.097 0.299,-0.103 0.319,-0.116C0.339,-0.129 0.356,-0.145 0.369,-0.164C0.382,-0.184 0.391,-0.204 0.396,-0.225C0.4,-0.237 0.403,-0.25 0.405,-0.264C0.408,-0.277 0.411,-0.29 0.413,-0.302C0.417,-0.322 0.417,-0.341 0.412,-0.359C0.408,-0.378 0.399,-0.393 0.385,-0.405C0.371,-0.417 0.351,-0.423 0.324,-0.423C0.298,-0.423 0.275,-0.417 0.256,-0.405C0.237,-0.392 0.221,-0.376 0.209,-0.356C0.197,-0.336 0.187,-0.314 0.18,-0.29C0.177,-0.28 0.175,-0.27 0.172,-0.26C0.17,-0.25 0.168,-0.24 0.167,-0.23C0.164,-0.206 0.163,-0.184 0.166,-0.164C0.168,-0.144 0.176,-0.128 0.188,-0.115C0.201,-0.103 0.221,-0.097 0.247,-0.097Z" style="fill:rgb(76,175,80);fill-rule:nonzero;"/>
            </g>
            <g transform="matrix(62.5,0,0,62.5,2723.91,1142.29)">
                <path d="M0.239,0.01C0.19,0.01 0.15,0 0.118,-0.019C0.085,-0.038 0.063,-0.066 0.051,-0.103C0.038,-0.139 0.037,-0.184 0.045,-0.236C0.046,-0.242 0.048,-0.251 0.05,-0.261C0.052,-0.272 0.054,-0.28 0.056,-0.286C0.07,-0.336 0.09,-0.38 0.118,-0.416C0.146,-0.453 0.18,-0.481 0.22,-0.501C0.261,-0.52 0.305,-0.53 0.354,-0.53C0.408,-0.53 0.451,-0.519 0.482,-0.496C0.514,-0.474 0.535,-0.443 0.545,-0.403C0.555,-0.364 0.555,-0.318 0.545,-0.266L0.54,-0.245C0.539,-0.238 0.535,-0.233 0.53,-0.228C0.524,-0.223 0.517,-0.221 0.51,-0.221L0.178,-0.221C0.178,-0.221 0.178,-0.22 0.177,-0.218C0.177,-0.216 0.177,-0.215 0.176,-0.213C0.172,-0.19 0.173,-0.169 0.177,-0.149C0.181,-0.129 0.19,-0.113 0.203,-0.101C0.217,-0.089 0.235,-0.083 0.258,-0.083C0.277,-0.083 0.293,-0.086 0.307,-0.092C0.321,-0.098 0.332,-0.104 0.342,-0.111C0.351,-0.119 0.358,-0.125 0.362,-0.129C0.37,-0.137 0.376,-0.141 0.38,-0.143C0.384,-0.145 0.39,-0.146 0.397,-0.146L0.484,-0.146C0.49,-0.146 0.495,-0.144 0.498,-0.14C0.501,-0.136 0.502,-0.131 0.501,-0.125C0.498,-0.114 0.489,-0.101 0.476,-0.086C0.463,-0.071 0.445,-0.056 0.422,-0.041C0.399,-0.026 0.372,-0.014 0.341,-0.004C0.311,0.005 0.277,0.01 0.239,0.01ZM0.196,-0.305L0.417,-0.305L0.418,-0.308C0.424,-0.334 0.425,-0.356 0.42,-0.376C0.415,-0.396 0.406,-0.411 0.391,-0.422C0.377,-0.433 0.358,-0.439 0.335,-0.439C0.311,-0.439 0.29,-0.433 0.272,-0.422C0.253,-0.411 0.238,-0.396 0.225,-0.376C0.213,-0.356 0.203,-0.334 0.197,-0.308L0.196,-0.305Z" style="fill:rgb(76,175,80);fill-rule:nonzero;"/>
            </g>
            <g transform="matrix(62.5,0,0,62.5,2759.87,1142.29)">
                <path d="M0.202,0.01C0.167,0.01 0.137,0.004 0.113,-0.008C0.088,-0.019 0.069,-0.036 0.055,-0.057C0.041,-0.078 0.032,-0.103 0.028,-0.132C0.024,-0.161 0.024,-0.193 0.03,-0.228C0.032,-0.24 0.034,-0.251 0.036,-0.26C0.038,-0.27 0.041,-0.281 0.044,-0.293C0.052,-0.326 0.064,-0.357 0.078,-0.386C0.093,-0.414 0.111,-0.44 0.132,-0.461C0.153,-0.483 0.178,-0.5 0.206,-0.512C0.234,-0.524 0.266,-0.53 0.301,-0.53C0.339,-0.53 0.37,-0.524 0.394,-0.511C0.418,-0.499 0.435,-0.483 0.447,-0.464L0.495,-0.686C0.496,-0.693 0.499,-0.699 0.505,-0.703C0.51,-0.708 0.516,-0.71 0.523,-0.71L0.608,-0.71C0.615,-0.71 0.621,-0.708 0.624,-0.703C0.628,-0.699 0.629,-0.693 0.628,-0.686L0.487,-0.024C0.485,-0.017 0.482,-0.011 0.477,-0.007C0.471,-0.002 0.465,-0 0.458,-0L0.379,-0C0.372,-0 0.367,-0.002 0.363,-0.007C0.359,-0.011 0.358,-0.017 0.36,-0.024L0.368,-0.061C0.347,-0.041 0.324,-0.023 0.299,-0.01C0.274,0.003 0.242,0.01 0.202,0.01ZM0.247,-0.097C0.274,-0.097 0.299,-0.103 0.319,-0.116C0.339,-0.129 0.356,-0.145 0.369,-0.164C0.382,-0.184 0.391,-0.204 0.396,-0.225C0.4,-0.237 0.403,-0.25 0.405,-0.264C0.408,-0.277 0.411,-0.29 0.413,-0.302C0.417,-0.322 0.417,-0.341 0.412,-0.359C0.408,-0.378 0.399,-0.393 0.385,-0.405C0.371,-0.417 0.351,-0.423 0.324,-0.423C0.298,-0.423 0.275,-0.417 0.256,-0.405C0.237,-0.392 0.221,-0.376 0.209,-0.356C0.197,-0.336 0.187,-0.314 0.18,-0.29C0.177,-0.28 0.175,-0.27 0.172,-0.26C0.17,-0.25 0.168,-0.24 0.167,-0.23C0.164,-0.206 0.163,-0.184 0.166,-0.164C0.168,-0.144 0.176,-0.128 0.188,-0.115C0.201,-0.103 0.221,-0.097 0.247,-0.097Z" style="fill:rgb(76,175,80);fill-rule:nonzero;"/>
            </g>
            <g transform="matrix(62.5,0,0,62.5,2798.14,1142.29)">
            </g>
        </g>
        <g transform="matrix(1,0,0,0.551025,-73.0071,564.026)">
            <path d="M1753.94,0L1753.94,2480.32" style="fill:none;stroke:white;stroke-width:30.97px;"/>
        </g>
        <g transform="matrix(0.723924,0,0,1,411.212,7.22566)">
            <path d="M0,1240.16L3507.87,1240.16" style="fill:none;stroke:white;stroke-width:28.64px;"/>
        </g>
        <g transform="matrix(1,0,0,1,-147.86,61.6898)">
            <g transform="matrix(150,0,0,150,860.007,898.744)">
                <path d="M0.249,-0C0.242,-0 0.236,-0.002 0.231,-0.007C0.226,-0.012 0.224,-0.018 0.224,-0.025L0.224,-0.543L0.046,-0.543C0.039,-0.543 0.033,-0.546 0.028,-0.55C0.023,-0.555 0.021,-0.561 0.021,-0.568L0.021,-0.675C0.021,-0.682 0.023,-0.688 0.028,-0.693C0.033,-0.698 0.039,-0.7 0.046,-0.7L0.584,-0.7C0.591,-0.7 0.597,-0.698 0.602,-0.693C0.607,-0.688 0.609,-0.682 0.609,-0.675L0.609,-0.568C0.609,-0.561 0.607,-0.555 0.602,-0.55C0.597,-0.546 0.591,-0.543 0.584,-0.543L0.406,-0.543L0.406,-0.025C0.406,-0.018 0.404,-0.012 0.399,-0.007C0.394,-0.002 0.388,-0 0.381,-0L0.249,-0Z" style="fill:white;fill-rule:nonzero;"/>
            </g>
            <g transform="matrix(150,0,0,150,947.176,898.744)">
                <path d="M0.25,0.01C0.212,0.01 0.178,0.001 0.149,-0.016C0.119,-0.033 0.096,-0.059 0.079,-0.093C0.062,-0.126 0.054,-0.167 0.054,-0.216L0.054,-0.495C0.054,-0.502 0.056,-0.508 0.061,-0.513C0.066,-0.518 0.072,-0.52 0.079,-0.52L0.204,-0.52C0.211,-0.52 0.217,-0.518 0.222,-0.513C0.227,-0.508 0.23,-0.502 0.23,-0.495L0.23,-0.222C0.23,-0.156 0.259,-0.124 0.317,-0.124C0.344,-0.124 0.366,-0.132 0.383,-0.149C0.399,-0.167 0.407,-0.191 0.407,-0.222L0.407,-0.495C0.407,-0.502 0.409,-0.508 0.414,-0.513C0.419,-0.518 0.425,-0.52 0.432,-0.52L0.557,-0.52C0.564,-0.52 0.57,-0.518 0.575,-0.513C0.58,-0.508 0.582,-0.502 0.582,-0.495L0.582,-0.025C0.582,-0.018 0.58,-0.012 0.575,-0.007C0.57,-0.002 0.564,-0 0.557,-0L0.441,-0C0.434,-0 0.428,-0.002 0.423,-0.007C0.419,-0.012 0.416,-0.018 0.416,-0.025L0.416,-0.063C0.399,-0.039 0.377,-0.021 0.349,-0.009C0.321,0.004 0.288,0.01 0.25,0.01Z" style="fill:white;fill-rule:nonzero;"/>
            </g>
            <g transform="matrix(150,0,0,150,1043.27,898.744)">
                <path d="M0.325,-0C0.282,-0 0.245,-0.007 0.214,-0.02C0.183,-0.034 0.159,-0.055 0.143,-0.085C0.126,-0.114 0.118,-0.151 0.118,-0.197L0.118,-0.389L0.04,-0.389C0.032,-0.389 0.026,-0.391 0.022,-0.396C0.017,-0.401 0.014,-0.407 0.014,-0.414L0.014,-0.495C0.014,-0.502 0.017,-0.508 0.022,-0.513C0.026,-0.518 0.032,-0.52 0.04,-0.52L0.118,-0.52L0.118,-0.685C0.118,-0.692 0.121,-0.698 0.125,-0.703C0.13,-0.708 0.136,-0.71 0.143,-0.71L0.259,-0.71C0.266,-0.71 0.272,-0.708 0.277,-0.703C0.282,-0.698 0.284,-0.692 0.284,-0.685L0.284,-0.52L0.409,-0.52C0.416,-0.52 0.422,-0.518 0.427,-0.513C0.432,-0.508 0.435,-0.502 0.435,-0.495L0.435,-0.414C0.435,-0.407 0.432,-0.401 0.427,-0.396C0.422,-0.391 0.416,-0.389 0.409,-0.389L0.284,-0.389L0.284,-0.211C0.284,-0.188 0.289,-0.17 0.297,-0.157C0.306,-0.144 0.321,-0.137 0.341,-0.137L0.418,-0.137C0.425,-0.137 0.431,-0.135 0.436,-0.13C0.441,-0.125 0.443,-0.119 0.443,-0.112L0.443,-0.025C0.443,-0.018 0.441,-0.012 0.436,-0.007C0.431,-0.002 0.425,-0 0.418,-0L0.325,-0Z" style="fill:white;fill-rule:nonzero;"/>
            </g>
            <g transform="matrix(150,0,0,150,1113.34,898.744)">
                <path d="M0.305,0.01C0.249,0.01 0.202,0.001 0.163,-0.017C0.125,-0.035 0.095,-0.061 0.075,-0.095C0.055,-0.128 0.043,-0.168 0.041,-0.215C0.04,-0.228 0.04,-0.243 0.04,-0.26C0.04,-0.277 0.04,-0.292 0.041,-0.305C0.043,-0.352 0.055,-0.393 0.077,-0.426C0.098,-0.46 0.128,-0.485 0.166,-0.503C0.205,-0.521 0.251,-0.53 0.305,-0.53C0.36,-0.53 0.406,-0.521 0.444,-0.503C0.483,-0.485 0.512,-0.46 0.534,-0.426C0.555,-0.393 0.567,-0.352 0.57,-0.305C0.571,-0.292 0.571,-0.277 0.571,-0.26C0.571,-0.243 0.571,-0.228 0.57,-0.215C0.567,-0.168 0.556,-0.128 0.535,-0.095C0.515,-0.061 0.486,-0.035 0.447,-0.017C0.409,0.001 0.362,0.01 0.305,0.01ZM0.305,-0.112C0.335,-0.112 0.357,-0.121 0.371,-0.139C0.384,-0.157 0.392,-0.184 0.394,-0.22C0.394,-0.23 0.395,-0.243 0.395,-0.26C0.395,-0.277 0.394,-0.29 0.394,-0.3C0.392,-0.335 0.384,-0.362 0.371,-0.381C0.357,-0.399 0.335,-0.408 0.305,-0.408C0.276,-0.408 0.254,-0.399 0.24,-0.381C0.226,-0.362 0.218,-0.335 0.217,-0.3C0.216,-0.29 0.216,-0.277 0.216,-0.26C0.216,-0.243 0.216,-0.23 0.217,-0.22C0.218,-0.184 0.226,-0.157 0.24,-0.139C0.254,-0.121 0.276,-0.112 0.305,-0.112Z" style="fill:white;fill-rule:nonzero;"/>
            </g>
            <g transform="matrix(150,0,0,150,1204.91,898.744)">
                <path d="M0.084,-0C0.077,-0 0.071,-0.002 0.066,-0.007C0.061,-0.012 0.059,-0.018 0.059,-0.025L0.059,-0.495C0.059,-0.502 0.061,-0.508 0.066,-0.513C0.071,-0.518 0.077,-0.52 0.084,-0.52L0.199,-0.52C0.206,-0.52 0.212,-0.518 0.217,-0.513C0.222,-0.508 0.225,-0.502 0.225,-0.495L0.225,-0.455C0.242,-0.476 0.264,-0.492 0.289,-0.503C0.314,-0.514 0.342,-0.52 0.373,-0.52L0.417,-0.52C0.424,-0.52 0.43,-0.518 0.435,-0.513C0.44,-0.508 0.442,-0.502 0.442,-0.495L0.442,-0.392C0.442,-0.385 0.44,-0.379 0.435,-0.374C0.43,-0.369 0.424,-0.367 0.417,-0.367L0.32,-0.367C0.293,-0.367 0.271,-0.36 0.256,-0.345C0.241,-0.33 0.234,-0.308 0.234,-0.281L0.234,-0.025C0.234,-0.018 0.231,-0.012 0.226,-0.007C0.221,-0.002 0.215,-0 0.208,-0L0.084,-0Z" style="fill:white;fill-rule:nonzero;"/>
            </g>
            <g transform="matrix(150,0,0,150,1273.05,898.744)">
                <path d="M0.084,-0C0.077,-0 0.071,-0.002 0.066,-0.007C0.061,-0.012 0.059,-0.018 0.059,-0.025L0.059,-0.495C0.059,-0.502 0.061,-0.508 0.066,-0.513C0.071,-0.518 0.077,-0.52 0.084,-0.52L0.202,-0.52C0.209,-0.52 0.215,-0.518 0.22,-0.513C0.225,-0.508 0.227,-0.502 0.227,-0.495L0.227,-0.025C0.227,-0.018 0.225,-0.012 0.22,-0.007C0.215,-0.002 0.209,-0 0.202,-0L0.084,-0ZM0.083,-0.595C0.076,-0.595 0.07,-0.597 0.065,-0.602C0.06,-0.607 0.058,-0.613 0.058,-0.62L0.058,-0.71C0.058,-0.717 0.06,-0.723 0.065,-0.728C0.07,-0.733 0.076,-0.735 0.083,-0.735L0.203,-0.735C0.21,-0.735 0.216,-0.733 0.221,-0.728C0.226,-0.723 0.228,-0.717 0.228,-0.71L0.228,-0.62C0.228,-0.613 0.226,-0.607 0.221,-0.602C0.216,-0.597 0.21,-0.595 0.203,-0.595L0.083,-0.595Z" style="fill:white;fill-rule:nonzero;"/>
            </g>
            <g transform="matrix(150,0,0,150,1315.88,898.744)">
                <path d="M0.215,0.01C0.179,0.01 0.147,0.003 0.118,-0.011C0.09,-0.024 0.068,-0.043 0.051,-0.066C0.035,-0.09 0.026,-0.116 0.026,-0.145C0.026,-0.193 0.046,-0.23 0.084,-0.258C0.123,-0.285 0.174,-0.304 0.238,-0.314L0.363,-0.333L0.363,-0.347C0.363,-0.371 0.358,-0.389 0.348,-0.402C0.338,-0.414 0.32,-0.421 0.293,-0.421C0.274,-0.421 0.259,-0.417 0.248,-0.41C0.236,-0.402 0.227,-0.392 0.22,-0.38C0.214,-0.372 0.206,-0.367 0.195,-0.367L0.083,-0.367C0.076,-0.367 0.07,-0.369 0.066,-0.374C0.062,-0.378 0.06,-0.383 0.061,-0.389C0.061,-0.401 0.066,-0.414 0.075,-0.43C0.084,-0.446 0.097,-0.462 0.116,-0.477C0.135,-0.492 0.159,-0.505 0.188,-0.515C0.217,-0.525 0.253,-0.53 0.295,-0.53C0.338,-0.53 0.374,-0.525 0.405,-0.515C0.436,-0.505 0.461,-0.491 0.48,-0.473C0.499,-0.455 0.513,-0.434 0.522,-0.409C0.531,-0.385 0.536,-0.358 0.536,-0.329L0.536,-0.025C0.536,-0.018 0.533,-0.012 0.529,-0.007C0.524,-0.002 0.518,-0 0.511,-0L0.395,-0C0.388,-0 0.382,-0.002 0.377,-0.007C0.372,-0.012 0.37,-0.018 0.37,-0.025L0.37,-0.06C0.361,-0.047 0.349,-0.036 0.335,-0.025C0.32,-0.015 0.303,-0.006 0.283,0C0.264,0.007 0.241,0.01 0.215,0.01ZM0.262,-0.104C0.281,-0.104 0.299,-0.108 0.315,-0.117C0.33,-0.125 0.342,-0.138 0.351,-0.156C0.36,-0.173 0.365,-0.196 0.365,-0.222L0.365,-0.236L0.28,-0.221C0.248,-0.215 0.226,-0.207 0.211,-0.196C0.197,-0.185 0.19,-0.173 0.19,-0.158C0.19,-0.147 0.193,-0.137 0.2,-0.129C0.206,-0.121 0.215,-0.115 0.226,-0.111C0.237,-0.106 0.249,-0.104 0.262,-0.104Z" style="fill:white;fill-rule:nonzero;"/>
            </g>
            <g transform="matrix(150,0,0,150,1404.34,898.744)">
                <path d="M0.084,-0C0.077,-0 0.071,-0.002 0.066,-0.007C0.061,-0.012 0.059,-0.018 0.059,-0.025L0.059,-0.685C0.059,-0.692 0.061,-0.698 0.066,-0.703C0.071,-0.708 0.077,-0.71 0.084,-0.71L0.202,-0.71C0.209,-0.71 0.215,-0.708 0.22,-0.703C0.225,-0.698 0.227,-0.692 0.227,-0.685L0.227,-0.025C0.227,-0.018 0.225,-0.012 0.22,-0.007C0.215,-0.002 0.209,-0 0.202,-0L0.084,-0Z" style="fill:white;fill-rule:nonzero;"/>
            </g>
            <g transform="matrix(150,0,0,150,1447.28,898.744)">
                <path d="M0.273,0.01C0.23,0.01 0.193,0.005 0.163,-0.004C0.132,-0.014 0.108,-0.026 0.088,-0.04C0.069,-0.054 0.055,-0.069 0.046,-0.084C0.037,-0.099 0.032,-0.112 0.031,-0.123C0.031,-0.13 0.033,-0.136 0.038,-0.141C0.043,-0.145 0.049,-0.148 0.055,-0.148L0.169,-0.148C0.171,-0.148 0.173,-0.147 0.174,-0.147C0.176,-0.146 0.178,-0.145 0.18,-0.143C0.188,-0.138 0.197,-0.132 0.206,-0.125C0.214,-0.118 0.224,-0.112 0.236,-0.107C0.247,-0.102 0.261,-0.099 0.277,-0.099C0.296,-0.099 0.311,-0.103 0.324,-0.11C0.337,-0.118 0.343,-0.129 0.343,-0.143C0.343,-0.154 0.34,-0.162 0.334,-0.17C0.328,-0.177 0.316,-0.184 0.298,-0.19C0.279,-0.196 0.252,-0.203 0.215,-0.21C0.18,-0.218 0.15,-0.228 0.124,-0.241C0.098,-0.255 0.078,-0.272 0.064,-0.293C0.05,-0.314 0.043,-0.339 0.043,-0.369C0.043,-0.395 0.052,-0.421 0.069,-0.446C0.086,-0.47 0.111,-0.491 0.145,-0.506C0.178,-0.522 0.219,-0.53 0.269,-0.53C0.307,-0.53 0.34,-0.525 0.369,-0.516C0.397,-0.507 0.421,-0.496 0.441,-0.482C0.46,-0.468 0.475,-0.454 0.485,-0.439C0.495,-0.424 0.501,-0.411 0.501,-0.399C0.502,-0.392 0.5,-0.386 0.495,-0.382C0.491,-0.377 0.485,-0.374 0.479,-0.374L0.375,-0.374C0.372,-0.374 0.369,-0.375 0.367,-0.376C0.364,-0.376 0.362,-0.378 0.36,-0.379C0.352,-0.383 0.344,-0.388 0.336,-0.395C0.328,-0.402 0.318,-0.408 0.308,-0.413C0.297,-0.418 0.284,-0.421 0.268,-0.421C0.25,-0.421 0.236,-0.417 0.226,-0.409C0.216,-0.401 0.211,-0.391 0.211,-0.378C0.211,-0.369 0.214,-0.361 0.219,-0.354C0.225,-0.347 0.237,-0.34 0.254,-0.334C0.272,-0.328 0.3,-0.321 0.337,-0.314C0.383,-0.307 0.42,-0.295 0.447,-0.278C0.474,-0.262 0.494,-0.243 0.505,-0.221C0.517,-0.2 0.523,-0.177 0.523,-0.153C0.523,-0.121 0.513,-0.093 0.494,-0.068C0.475,-0.043 0.446,-0.024 0.409,-0.011C0.372,0.003 0.327,0.01 0.273,0.01Z" style="fill:white;fill-rule:nonzero;"/>
            </g>
            <g transform="matrix(150,0,0,150,1530.26,898.744)">
            </g>
        </g>
        <g transform="matrix(1,0,0,1,1121.9,61.6898)">
            <g transform="matrix(150,0,0,150,916.735,898.744)">
                <path d="M0.095,-0C0.088,-0 0.082,-0.002 0.077,-0.007C0.072,-0.012 0.07,-0.018 0.07,-0.025L0.07,-0.675C0.07,-0.682 0.072,-0.688 0.077,-0.693C0.082,-0.698 0.088,-0.7 0.095,-0.7L0.224,-0.7C0.231,-0.7 0.237,-0.698 0.242,-0.693C0.247,-0.688 0.249,-0.682 0.25,-0.675L0.25,-0.434L0.496,-0.434L0.496,-0.675C0.496,-0.682 0.498,-0.688 0.503,-0.693C0.508,-0.698 0.514,-0.7 0.521,-0.7L0.65,-0.7C0.657,-0.7 0.663,-0.698 0.668,-0.693C0.673,-0.688 0.675,-0.682 0.675,-0.675L0.675,-0.025C0.675,-0.018 0.673,-0.012 0.668,-0.007C0.663,-0.002 0.657,-0 0.65,-0L0.521,-0C0.514,-0 0.508,-0.002 0.503,-0.007C0.498,-0.012 0.496,-0.018 0.496,-0.025L0.496,-0.274L0.25,-0.274L0.25,-0.025C0.249,-0.018 0.247,-0.012 0.242,-0.007C0.237,-0.002 0.231,-0 0.224,-0L0.095,-0Z" style="fill:white;fill-rule:nonzero;"/>
            </g>
            <g transform="matrix(150,0,0,150,1028.48,898.744)">
                <path d="M0.305,0.01C0.249,0.01 0.202,0.001 0.163,-0.017C0.125,-0.035 0.095,-0.061 0.075,-0.095C0.055,-0.128 0.043,-0.168 0.041,-0.215C0.04,-0.228 0.04,-0.243 0.04,-0.26C0.04,-0.277 0.04,-0.292 0.041,-0.305C0.043,-0.352 0.055,-0.393 0.077,-0.426C0.098,-0.46 0.128,-0.485 0.166,-0.503C0.205,-0.521 0.251,-0.53 0.305,-0.53C0.36,-0.53 0.406,-0.521 0.444,-0.503C0.483,-0.485 0.512,-0.46 0.534,-0.426C0.555,-0.393 0.567,-0.352 0.57,-0.305C0.571,-0.292 0.571,-0.277 0.571,-0.26C0.571,-0.243 0.571,-0.228 0.57,-0.215C0.567,-0.168 0.556,-0.128 0.535,-0.095C0.515,-0.061 0.486,-0.035 0.447,-0.017C0.409,0.001 0.362,0.01 0.305,0.01ZM0.305,-0.112C0.335,-0.112 0.357,-0.121 0.371,-0.139C0.384,-0.157 0.392,-0.184 0.394,-0.22C0.394,-0.23 0.395,-0.243 0.395,-0.26C0.395,-0.277 0.394,-0.29 0.394,-0.3C0.392,-0.335 0.384,-0.362 0.371,-0.381C0.357,-0.399 0.335,-0.408 0.305,-0.408C0.276,-0.408 0.254,-0.399 0.24,-0.381C0.226,-0.362 0.218,-0.335 0.217,-0.3C0.216,-0.29 0.216,-0.277 0.216,-0.26C0.216,-0.243 0.216,-0.23 0.217,-0.22C0.218,-0.184 0.226,-0.157 0.24,-0.139C0.254,-0.121 0.276,-0.112 0.305,-0.112Z" style="fill:white;fill-rule:nonzero;"/>
            </g>
            <g transform="matrix(150,0,0,150,1117.81,898.744)">
                <path d="M0.204,-0C0.194,-0 0.187,-0.002 0.182,-0.007C0.177,-0.012 0.173,-0.018 0.171,-0.025L0.027,-0.488C0.026,-0.492 0.025,-0.495 0.025,-0.498C0.025,-0.504 0.028,-0.509 0.032,-0.513C0.036,-0.518 0.042,-0.52 0.048,-0.52L0.151,-0.52C0.16,-0.52 0.167,-0.518 0.172,-0.513C0.177,-0.508 0.18,-0.504 0.181,-0.499L0.265,-0.213L0.355,-0.498C0.356,-0.502 0.359,-0.507 0.364,-0.512C0.369,-0.517 0.377,-0.52 0.386,-0.52L0.452,-0.52C0.461,-0.52 0.469,-0.517 0.474,-0.512C0.479,-0.507 0.482,-0.502 0.483,-0.498L0.573,-0.213L0.657,-0.499C0.658,-0.504 0.661,-0.508 0.666,-0.513C0.671,-0.518 0.678,-0.52 0.687,-0.52L0.79,-0.52C0.796,-0.52 0.801,-0.518 0.806,-0.513C0.81,-0.509 0.813,-0.504 0.813,-0.498C0.813,-0.495 0.812,-0.492 0.811,-0.488L0.667,-0.025C0.665,-0.018 0.661,-0.012 0.656,-0.007C0.651,-0.002 0.644,-0 0.634,-0L0.544,-0C0.535,-0 0.527,-0.002 0.522,-0.007C0.517,-0.012 0.513,-0.018 0.511,-0.025L0.419,-0.299L0.327,-0.025C0.325,-0.018 0.321,-0.012 0.316,-0.007C0.311,-0.002 0.303,-0 0.294,-0L0.204,-0Z" style="fill:white;fill-rule:nonzero;"/>
            </g>
            <g transform="matrix(150,0,0,150,1241.39,898.744)">
                <path d="M0.082,-0.228C0.075,-0.228 0.069,-0.23 0.064,-0.235C0.059,-0.24 0.057,-0.246 0.057,-0.253L0.057,-0.347C0.057,-0.354 0.059,-0.36 0.064,-0.365C0.069,-0.37 0.075,-0.372 0.082,-0.372L0.395,-0.372C0.402,-0.372 0.408,-0.37 0.413,-0.365C0.418,-0.36 0.42,-0.354 0.421,-0.347L0.421,-0.253C0.42,-0.246 0.418,-0.24 0.413,-0.235C0.408,-0.23 0.402,-0.228 0.395,-0.228L0.082,-0.228Z" style="fill:white;fill-rule:nonzero;"/>
            </g>
            <g transform="matrix(150,0,0,150,1311.89,898.744)">
                <path d="M0.325,-0C0.282,-0 0.245,-0.007 0.214,-0.02C0.183,-0.034 0.159,-0.055 0.143,-0.085C0.126,-0.114 0.118,-0.151 0.118,-0.197L0.118,-0.389L0.04,-0.389C0.032,-0.389 0.026,-0.391 0.022,-0.396C0.017,-0.401 0.014,-0.407 0.014,-0.414L0.014,-0.495C0.014,-0.502 0.017,-0.508 0.022,-0.513C0.026,-0.518 0.032,-0.52 0.04,-0.52L0.118,-0.52L0.118,-0.685C0.118,-0.692 0.121,-0.698 0.125,-0.703C0.13,-0.708 0.136,-0.71 0.143,-0.71L0.259,-0.71C0.266,-0.71 0.272,-0.708 0.277,-0.703C0.282,-0.698 0.284,-0.692 0.284,-0.685L0.284,-0.52L0.409,-0.52C0.416,-0.52 0.422,-0.518 0.427,-0.513C0.432,-0.508 0.435,-0.502 0.435,-0.495L0.435,-0.414C0.435,-0.407 0.432,-0.401 0.427,-0.396C0.422,-0.391 0.416,-0.389 0.409,-0.389L0.284,-0.389L0.284,-0.211C0.284,-0.188 0.289,-0.17 0.297,-0.157C0.306,-0.144 0.321,-0.137 0.341,-0.137L0.418,-0.137C0.425,-0.137 0.431,-0.135 0.436,-0.13C0.441,-0.125 0.443,-0.119 0.443,-0.112L0.443,-0.025C0.443,-0.018 0.441,-0.012 0.436,-0.007C0.431,-0.002 0.425,-0 0.418,-0L0.325,-0Z" style="fill:white;fill-rule:nonzero;"/>
            </g>
            <g transform="matrix(150,0,0,150,1381.96,898.744)">
                <path d="M0.305,0.01C0.249,0.01 0.202,0.001 0.163,-0.017C0.125,-0.035 0.095,-0.061 0.075,-0.095C0.055,-0.128 0.043,-0.168 0.041,-0.215C0.04,-0.228 0.04,-0.243 0.04,-0.26C0.04,-0.277 0.04,-0.292 0.041,-0.305C0.043,-0.352 0.055,-0.393 0.077,-0.426C0.098,-0.46 0.128,-0.485 0.166,-0.503C0.205,-0.521 0.251,-0.53 0.305,-0.53C0.36,-0.53 0.406,-0.521 0.444,-0.503C0.483,-0.485 0.512,-0.46 0.534,-0.426C0.555,-0.393 0.567,-0.352 0.57,-0.305C0.571,-0.292 0.571,-0.277 0.571,-0.26C0.571,-0.243 0.571,-0.228 0.57,-0.215C0.567,-0.168 0.556,-0.128 0.535,-0.095C0.515,-0.061 0.486,-0.035 0.447,-0.017C0.409,0.001 0.362,0.01 0.305,0.01ZM0.305,-0.112C0.335,-0.112 0.357,-0.121 0.371,-0.139C0.384,-0.157 0.392,-0.184 0.394,-0.22C0.394,-0.23 0.395,-0.243 0.395,-0.26C0.395,-0.277 0.394,-0.29 0.394,-0.3C0.392,-0.335 0.384,-0.362 0.371,-0.381C0.357,-0.399 0.335,-0.408 0.305,-0.408C0.276,-0.408 0.254,-0.399 0.24,-0.381C0.226,-0.362 0.218,-0.335 0.217,-0.3C0.216,-0.29 0.216,-0.277 0.216,-0.26C0.216,-0.243 0.216,-0.23 0.217,-0.22C0.218,-0.184 0.226,-0.157 0.24,-0.139C0.254,-0.121 0.276,-0.112 0.305,-0.112Z" style="fill:white;fill-rule:nonzero;"/>
            </g>
            <g transform="matrix(150,0,0,150,1473.53,898.744)">
            </g>
        </g>
        <g transform="matrix(1,0,0,1,1121.9,743.417)">
            <g transform="matrix(150,0,0,150,807.104,898.744)">
                <path d="M0.095,-0C0.088,-0 0.082,-0.002 0.077,-0.007C0.072,-0.012 0.07,-0.018 0.07,-0.025L0.07,-0.675C0.07,-0.682 0.072,-0.688 0.077,-0.693C0.082,-0.698 0.088,-0.7 0.095,-0.7L0.367,-0.7C0.453,-0.7 0.521,-0.68 0.571,-0.641C0.62,-0.601 0.645,-0.545 0.645,-0.472C0.645,-0.424 0.633,-0.384 0.611,-0.352C0.588,-0.319 0.558,-0.294 0.521,-0.278L0.658,-0.032C0.66,-0.028 0.661,-0.025 0.661,-0.021C0.661,-0.016 0.659,-0.011 0.654,-0.006C0.65,-0.002 0.645,-0 0.64,-0L0.507,-0C0.495,-0 0.485,-0.003 0.479,-0.009C0.473,-0.016 0.468,-0.022 0.466,-0.027L0.352,-0.247L0.25,-0.247L0.25,-0.025C0.249,-0.018 0.247,-0.012 0.242,-0.007C0.237,-0.002 0.231,-0 0.224,-0L0.095,-0ZM0.25,-0.389L0.365,-0.389C0.397,-0.389 0.42,-0.396 0.435,-0.412C0.451,-0.427 0.459,-0.448 0.459,-0.474C0.459,-0.5 0.451,-0.521 0.436,-0.537C0.421,-0.553 0.397,-0.561 0.365,-0.561L0.25,-0.561L0.25,-0.389Z" style="fill:white;fill-rule:nonzero;"/>
            </g>
            <g transform="matrix(150,0,0,150,909.741,898.744)">
                <path d="M0.299,0.01C0.22,0.01 0.157,-0.011 0.111,-0.054C0.064,-0.097 0.04,-0.16 0.038,-0.244C0.038,-0.249 0.038,-0.255 0.038,-0.262C0.038,-0.269 0.038,-0.275 0.038,-0.279C0.04,-0.332 0.052,-0.377 0.074,-0.414C0.095,-0.452 0.125,-0.481 0.163,-0.5C0.202,-0.52 0.247,-0.53 0.298,-0.53C0.357,-0.53 0.405,-0.518 0.444,-0.495C0.482,-0.472 0.511,-0.44 0.53,-0.4C0.55,-0.36 0.559,-0.314 0.559,-0.263L0.559,-0.239C0.559,-0.232 0.557,-0.226 0.552,-0.221C0.547,-0.216 0.541,-0.214 0.534,-0.214L0.214,-0.214L0.214,-0.207C0.215,-0.187 0.218,-0.17 0.224,-0.154C0.23,-0.138 0.24,-0.126 0.252,-0.116C0.265,-0.107 0.28,-0.102 0.298,-0.102C0.311,-0.102 0.322,-0.104 0.331,-0.109C0.34,-0.113 0.348,-0.118 0.354,-0.123C0.36,-0.129 0.365,-0.134 0.368,-0.138C0.374,-0.145 0.379,-0.149 0.383,-0.151C0.386,-0.153 0.392,-0.154 0.4,-0.154L0.524,-0.154C0.53,-0.154 0.536,-0.152 0.54,-0.148C0.544,-0.144 0.546,-0.139 0.546,-0.132C0.545,-0.121 0.539,-0.107 0.529,-0.091C0.518,-0.075 0.503,-0.059 0.483,-0.044C0.462,-0.028 0.437,-0.015 0.406,-0.005C0.375,0.005 0.339,0.01 0.299,0.01ZM0.214,-0.313L0.383,-0.313L0.383,-0.315C0.383,-0.337 0.38,-0.355 0.373,-0.371C0.367,-0.387 0.357,-0.399 0.344,-0.408C0.332,-0.416 0.316,-0.421 0.298,-0.421C0.28,-0.421 0.265,-0.416 0.253,-0.408C0.24,-0.399 0.23,-0.387 0.224,-0.371C0.217,-0.355 0.214,-0.337 0.214,-0.315L0.214,-0.313Z" style="fill:white;fill-rule:nonzero;"/>
            </g>
            <g transform="matrix(150,0,0,150,998.26,898.744)">
                <path d="M0.143,-0C0.136,-0 0.13,-0.002 0.125,-0.007C0.121,-0.012 0.118,-0.018 0.118,-0.025L0.118,-0.389L0.042,-0.389C0.035,-0.389 0.029,-0.391 0.024,-0.396C0.019,-0.401 0.017,-0.407 0.017,-0.414L0.017,-0.495C0.017,-0.502 0.019,-0.508 0.024,-0.513C0.029,-0.518 0.035,-0.52 0.042,-0.52L0.118,-0.52L0.118,-0.552C0.118,-0.597 0.127,-0.634 0.145,-0.662C0.162,-0.689 0.188,-0.709 0.22,-0.721C0.253,-0.734 0.292,-0.74 0.337,-0.74L0.415,-0.74C0.422,-0.74 0.428,-0.738 0.433,-0.733C0.438,-0.728 0.44,-0.722 0.44,-0.715L0.44,-0.634C0.44,-0.627 0.438,-0.621 0.433,-0.616C0.428,-0.611 0.422,-0.609 0.415,-0.609L0.345,-0.609C0.322,-0.609 0.307,-0.604 0.298,-0.593C0.289,-0.582 0.284,-0.567 0.284,-0.547L0.284,-0.52L0.405,-0.52C0.412,-0.52 0.418,-0.518 0.423,-0.513C0.428,-0.508 0.43,-0.502 0.43,-0.495L0.43,-0.414C0.43,-0.407 0.428,-0.401 0.423,-0.396C0.418,-0.391 0.412,-0.389 0.405,-0.389L0.284,-0.389L0.284,-0.025C0.284,-0.018 0.282,-0.012 0.277,-0.007C0.272,-0.002 0.266,-0 0.259,-0L0.143,-0Z" style="fill:white;fill-rule:nonzero;"/>
            </g>
            <g transform="matrix(150,0,0,150,1063.58,898.744)">
                <path d="M0.299,0.01C0.22,0.01 0.157,-0.011 0.111,-0.054C0.064,-0.097 0.04,-0.16 0.038,-0.244C0.038,-0.249 0.038,-0.255 0.038,-0.262C0.038,-0.269 0.038,-0.275 0.038,-0.279C0.04,-0.332 0.052,-0.377 0.074,-0.414C0.095,-0.452 0.125,-0.481 0.163,-0.5C0.202,-0.52 0.247,-0.53 0.298,-0.53C0.357,-0.53 0.405,-0.518 0.444,-0.495C0.482,-0.472 0.511,-0.44 0.53,-0.4C0.55,-0.36 0.559,-0.314 0.559,-0.263L0.559,-0.239C0.559,-0.232 0.557,-0.226 0.552,-0.221C0.547,-0.216 0.541,-0.214 0.534,-0.214L0.214,-0.214L0.214,-0.207C0.215,-0.187 0.218,-0.17 0.224,-0.154C0.23,-0.138 0.24,-0.126 0.252,-0.116C0.265,-0.107 0.28,-0.102 0.298,-0.102C0.311,-0.102 0.322,-0.104 0.331,-0.109C0.34,-0.113 0.348,-0.118 0.354,-0.123C0.36,-0.129 0.365,-0.134 0.368,-0.138C0.374,-0.145 0.379,-0.149 0.383,-0.151C0.386,-0.153 0.392,-0.154 0.4,-0.154L0.524,-0.154C0.53,-0.154 0.536,-0.152 0.54,-0.148C0.544,-0.144 0.546,-0.139 0.546,-0.132C0.545,-0.121 0.539,-0.107 0.529,-0.091C0.518,-0.075 0.503,-0.059 0.483,-0.044C0.462,-0.028 0.437,-0.015 0.406,-0.005C0.375,0.005 0.339,0.01 0.299,0.01ZM0.214,-0.313L0.383,-0.313L0.383,-0.315C0.383,-0.337 0.38,-0.355 0.373,-0.371C0.367,-0.387 0.357,-0.399 0.344,-0.408C0.332,-0.416 0.316,-0.421 0.298,-0.421C0.28,-0.421 0.265,-0.416 0.253,-0.408C0.24,-0.399 0.23,-0.387 0.224,-0.371C0.217,-0.355 0.214,-0.337 0.214,-0.315L0.214,-0.313Z" style="fill:white;fill-rule:nonzero;"/>
            </g>
            <g transform="matrix(150,0,0,150,1152.7,898.744)">
                <path d="M0.084,-0C0.077,-0 0.071,-0.002 0.066,-0.007C0.061,-0.012 0.059,-0.018 0.059,-0.025L0.059,-0.495C0.059,-0.502 0.061,-0.508 0.066,-0.513C0.071,-0.518 0.077,-0.52 0.084,-0.52L0.199,-0.52C0.206,-0.52 0.212,-0.518 0.217,-0.513C0.222,-0.508 0.225,-0.502 0.225,-0.495L0.225,-0.455C0.242,-0.476 0.264,-0.492 0.289,-0.503C0.314,-0.514 0.342,-0.52 0.373,-0.52L0.417,-0.52C0.424,-0.52 0.43,-0.518 0.435,-0.513C0.44,-0.508 0.442,-0.502 0.442,-0.495L0.442,-0.392C0.442,-0.385 0.44,-0.379 0.435,-0.374C0.43,-0.369 0.424,-0.367 0.417,-0.367L0.32,-0.367C0.293,-0.367 0.271,-0.36 0.256,-0.345C0.241,-0.33 0.234,-0.308 0.234,-0.281L0.234,-0.025C0.234,-0.018 0.231,-0.012 0.226,-0.007C0.221,-0.002 0.215,-0 0.208,-0L0.084,-0Z" style="fill:white;fill-rule:nonzero;"/>
            </g>
            <g transform="matrix(150,0,0,150,1220.09,898.744)">
                <path d="M0.299,0.01C0.22,0.01 0.157,-0.011 0.111,-0.054C0.064,-0.097 0.04,-0.16 0.038,-0.244C0.038,-0.249 0.038,-0.255 0.038,-0.262C0.038,-0.269 0.038,-0.275 0.038,-0.279C0.04,-0.332 0.052,-0.377 0.074,-0.414C0.095,-0.452 0.125,-0.481 0.163,-0.5C0.202,-0.52 0.247,-0.53 0.298,-0.53C0.357,-0.53 0.405,-0.518 0.444,-0.495C0.482,-0.472 0.511,-0.44 0.53,-0.4C0.55,-0.36 0.559,-0.314 0.559,-0.263L0.559,-0.239C0.559,-0.232 0.557,-0.226 0.552,-0.221C0.547,-0.216 0.541,-0.214 0.534,-0.214L0.214,-0.214L0.214,-0.207C0.215,-0.187 0.218,-0.17 0.224,-0.154C0.23,-0.138 0.24,-0.126 0.252,-0.116C0.265,-0.107 0.28,-0.102 0.298,-0.102C0.311,-0.102 0.322,-0.104 0.331,-0.109C0.34,-0.113 0.348,-0.118 0.354,-0.123C0.36,-0.129 0.365,-0.134 0.368,-0.138C0.374,-0.145 0.379,-0.149 0.383,-0.151C0.386,-0.153 0.392,-0.154 0.4,-0.154L0.524,-0.154C0.53,-0.154 0.536,-0.152 0.54,-0.148C0.544,-0.144 0.546,-0.139 0.546,-0.132C0.545,-0.121 0.539,-0.107 0.529,-0.091C0.518,-0.075 0.503,-0.059 0.483,-0.044C0.462,-0.028 0.437,-0.015 0.406,-0.005C0.375,0.005 0.339,0.01 0.299,0.01ZM0.214,-0.313L0.383,-0.313L0.383,-0.315C0.383,-0.337 0.38,-0.355 0.373,-0.371C0.367,-0.387 0.357,-0.399 0.344,-0.408C0.332,-0.416 0.316,-0.421 0.298,-0.421C0.28,-0.421 0.265,-0.416 0.253,-0.408C0.24,-0.399 0.23,-0.387 0.224,-0.371C0.217,-0.355 0.214,-0.337 0.214,-0.315L0.214,-0.313Z" style="fill:white;fill-rule:nonzero;"/>
            </g>
            <g transform="matrix(150,0,0,150,1309.21,898.744)">
                <path d="M0.084,-0C0.077,-0 0.071,-0.002 0.066,-0.007C0.061,-0.012 0.059,-0.018 0.059,-0.025L0.059,-0.495C0.059,-0.502 0.061,-0.508 0.066,-0.513C0.071,-0.518 0.077,-0.52 0.084,-0.52L0.199,-0.52C0.206,-0.52 0.212,-0.518 0.217,-0.513C0.222,-0.508 0.225,-0.502 0.225,-0.495L0.225,-0.457C0.242,-0.477 0.264,-0.495 0.292,-0.509C0.32,-0.523 0.353,-0.53 0.391,-0.53C0.43,-0.53 0.463,-0.521 0.493,-0.504C0.523,-0.487 0.546,-0.461 0.563,-0.428C0.58,-0.394 0.589,-0.353 0.589,-0.304L0.589,-0.025C0.589,-0.018 0.587,-0.012 0.582,-0.007C0.577,-0.002 0.571,-0 0.564,-0L0.438,-0C0.431,-0 0.425,-0.002 0.42,-0.007C0.415,-0.012 0.413,-0.018 0.413,-0.025L0.413,-0.298C0.413,-0.329 0.405,-0.353 0.39,-0.371C0.375,-0.388 0.353,-0.396 0.324,-0.396C0.297,-0.396 0.275,-0.388 0.258,-0.371C0.242,-0.353 0.234,-0.329 0.234,-0.298L0.234,-0.025C0.234,-0.018 0.231,-0.012 0.227,-0.007C0.222,-0.002 0.216,-0 0.209,-0L0.084,-0Z" style="fill:white;fill-rule:nonzero;"/>
            </g>
            <g transform="matrix(150,0,0,150,1405.58,898.744)">
                <path d="M0.298,0.01C0.249,0.01 0.205,0.001 0.167,-0.017C0.129,-0.035 0.099,-0.061 0.077,-0.095C0.054,-0.129 0.042,-0.171 0.04,-0.219C0.039,-0.23 0.039,-0.243 0.039,-0.259C0.039,-0.276 0.039,-0.289 0.04,-0.3C0.042,-0.349 0.054,-0.39 0.076,-0.425C0.098,-0.459 0.129,-0.485 0.167,-0.503C0.205,-0.521 0.249,-0.53 0.298,-0.53C0.344,-0.53 0.384,-0.524 0.416,-0.511C0.449,-0.498 0.476,-0.481 0.496,-0.462C0.517,-0.442 0.532,-0.423 0.543,-0.402C0.553,-0.382 0.558,-0.364 0.559,-0.349C0.559,-0.342 0.557,-0.336 0.552,-0.331C0.547,-0.326 0.54,-0.324 0.534,-0.324L0.407,-0.324C0.399,-0.324 0.394,-0.326 0.39,-0.329C0.386,-0.333 0.383,-0.338 0.379,-0.344C0.371,-0.364 0.361,-0.379 0.349,-0.388C0.337,-0.397 0.321,-0.401 0.301,-0.401C0.275,-0.401 0.254,-0.393 0.24,-0.375C0.225,-0.358 0.217,-0.331 0.216,-0.295C0.215,-0.268 0.215,-0.245 0.216,-0.224C0.218,-0.188 0.226,-0.161 0.24,-0.144C0.254,-0.127 0.275,-0.119 0.301,-0.119C0.322,-0.119 0.338,-0.123 0.35,-0.132C0.362,-0.141 0.372,-0.156 0.379,-0.176C0.382,-0.182 0.386,-0.187 0.39,-0.191C0.394,-0.194 0.399,-0.196 0.407,-0.196L0.534,-0.196C0.54,-0.196 0.547,-0.194 0.552,-0.189C0.557,-0.184 0.559,-0.178 0.559,-0.171C0.558,-0.16 0.555,-0.147 0.549,-0.132C0.543,-0.116 0.534,-0.1 0.521,-0.084C0.508,-0.067 0.492,-0.052 0.472,-0.038C0.451,-0.024 0.427,-0.012 0.398,-0.003C0.369,0.006 0.336,0.01 0.298,0.01Z" style="fill:white;fill-rule:nonzero;"/>
            </g>
            <g transform="matrix(150,0,0,150,1494.05,898.744)">
                <path d="M0.299,0.01C0.22,0.01 0.157,-0.011 0.111,-0.054C0.064,-0.097 0.04,-0.16 0.038,-0.244C0.038,-0.249 0.038,-0.255 0.038,-0.262C0.038,-0.269 0.038,-0.275 0.038,-0.279C0.04,-0.332 0.052,-0.377 0.074,-0.414C0.095,-0.452 0.125,-0.481 0.163,-0.5C0.202,-0.52 0.247,-0.53 0.298,-0.53C0.357,-0.53 0.405,-0.518 0.444,-0.495C0.482,-0.472 0.511,-0.44 0.53,-0.4C0.55,-0.36 0.559,-0.314 0.559,-0.263L0.559,-0.239C0.559,-0.232 0.557,-0.226 0.552,-0.221C0.547,-0.216 0.541,-0.214 0.534,-0.214L0.214,-0.214L0.214,-0.207C0.215,-0.187 0.218,-0.17 0.224,-0.154C0.23,-0.138 0.24,-0.126 0.252,-0.116C0.265,-0.107 0.28,-0.102 0.298,-0.102C0.311,-0.102 0.322,-0.104 0.331,-0.109C0.34,-0.113 0.348,-0.118 0.354,-0.123C0.36,-0.129 0.365,-0.134 0.368,-0.138C0.374,-0.145 0.379,-0.149 0.383,-0.151C0.386,-0.153 0.392,-0.154 0.4,-0.154L0.524,-0.154C0.53,-0.154 0.536,-0.152 0.54,-0.148C0.544,-0.144 0.546,-0.139 0.546,-0.132C0.545,-0.121 0.539,-0.107 0.529,-0.091C0.518,-0.075 0.503,-0.059 0.483,-0.044C0.462,-0.028 0.437,-0.015 0.406,-0.005C0.375,0.005 0.339,0.01 0.299,0.01ZM0.214,-0.313L0.383,-0.313L0.383,-0.315C0.383,-0.337 0.38,-0.355 0.373,-0.371C0.367,-0.387 0.357,-0.399 0.344,-0.408C0.332,-0.416 0.316,-0.421 0.298,-0.421C0.28,-0.421 0.265,-0.416 0.253,-0.408C0.24,-0.399 0.23,-0.387 0.224,-0.371C0.217,-0.355 0.214,-0.337 0.214,-0.315L0.214,-0.313Z" style="fill:white;fill-rule:nonzero;"/>
            </g>
            <g transform="matrix(150,0,0,150,1583.17,898.744)">
            </g>
        </g>
        <g transform="matrix(1,0,0,1,-151.225,743.417)">
            <g transform="matrix(150,0,0,150,862.547,898.744)">
                <path d="M0.095,-0C0.088,-0 0.082,-0.002 0.077,-0.007C0.072,-0.012 0.07,-0.018 0.07,-0.025L0.07,-0.675C0.07,-0.682 0.072,-0.688 0.077,-0.693C0.082,-0.698 0.088,-0.7 0.095,-0.7L0.227,-0.7C0.234,-0.7 0.24,-0.698 0.245,-0.693C0.25,-0.688 0.252,-0.682 0.252,-0.675L0.252,-0.151L0.555,-0.151C0.562,-0.151 0.568,-0.148 0.573,-0.143C0.578,-0.139 0.58,-0.132 0.58,-0.125L0.58,-0.025C0.58,-0.018 0.578,-0.012 0.573,-0.007C0.568,-0.002 0.562,-0 0.555,-0L0.095,-0Z" style="fill:white;fill-rule:nonzero;"/>
            </g>
            <g transform="matrix(150,0,0,150,951.31,898.744)">
                <path d="M0.299,0.01C0.22,0.01 0.157,-0.011 0.111,-0.054C0.064,-0.097 0.04,-0.16 0.038,-0.244C0.038,-0.249 0.038,-0.255 0.038,-0.262C0.038,-0.269 0.038,-0.275 0.038,-0.279C0.04,-0.332 0.052,-0.377 0.074,-0.414C0.095,-0.452 0.125,-0.481 0.163,-0.5C0.202,-0.52 0.247,-0.53 0.298,-0.53C0.357,-0.53 0.405,-0.518 0.444,-0.495C0.482,-0.472 0.511,-0.44 0.53,-0.4C0.55,-0.36 0.559,-0.314 0.559,-0.263L0.559,-0.239C0.559,-0.232 0.557,-0.226 0.552,-0.221C0.547,-0.216 0.541,-0.214 0.534,-0.214L0.214,-0.214L0.214,-0.207C0.215,-0.187 0.218,-0.17 0.224,-0.154C0.23,-0.138 0.24,-0.126 0.252,-0.116C0.265,-0.107 0.28,-0.102 0.298,-0.102C0.311,-0.102 0.322,-0.104 0.331,-0.109C0.34,-0.113 0.348,-0.118 0.354,-0.123C0.36,-0.129 0.365,-0.134 0.368,-0.138C0.374,-0.145 0.379,-0.149 0.383,-0.151C0.386,-0.153 0.392,-0.154 0.4,-0.154L0.524,-0.154C0.53,-0.154 0.536,-0.152 0.54,-0.148C0.544,-0.144 0.546,-0.139 0.546,-0.132C0.545,-0.121 0.539,-0.107 0.529,-0.091C0.518,-0.075 0.503,-0.059 0.483,-0.044C0.462,-0.028 0.437,-0.015 0.406,-0.005C0.375,0.005 0.339,0.01 0.299,0.01ZM0.214,-0.313L0.383,-0.313L0.383,-0.315C0.383,-0.337 0.38,-0.355 0.373,-0.371C0.367,-0.387 0.357,-0.399 0.344,-0.408C0.332,-0.416 0.316,-0.421 0.298,-0.421C0.28,-0.421 0.265,-0.416 0.253,-0.408C0.24,-0.399 0.23,-0.387 0.224,-0.371C0.217,-0.355 0.214,-0.337 0.214,-0.315L0.214,-0.313Z" style="fill:white;fill-rule:nonzero;"/>
            </g>
            <g transform="matrix(150,0,0,150,1040.43,898.744)">
                <path d="M0.215,0.01C0.179,0.01 0.147,0.003 0.118,-0.011C0.09,-0.024 0.068,-0.043 0.051,-0.066C0.035,-0.09 0.026,-0.116 0.026,-0.145C0.026,-0.193 0.046,-0.23 0.084,-0.258C0.123,-0.285 0.174,-0.304 0.238,-0.314L0.363,-0.333L0.363,-0.347C0.363,-0.371 0.358,-0.389 0.348,-0.402C0.338,-0.414 0.32,-0.421 0.293,-0.421C0.274,-0.421 0.259,-0.417 0.248,-0.41C0.236,-0.402 0.227,-0.392 0.22,-0.38C0.214,-0.372 0.206,-0.367 0.195,-0.367L0.083,-0.367C0.076,-0.367 0.07,-0.369 0.066,-0.374C0.062,-0.378 0.06,-0.383 0.061,-0.389C0.061,-0.401 0.066,-0.414 0.075,-0.43C0.084,-0.446 0.097,-0.462 0.116,-0.477C0.135,-0.492 0.159,-0.505 0.188,-0.515C0.217,-0.525 0.253,-0.53 0.295,-0.53C0.338,-0.53 0.374,-0.525 0.405,-0.515C0.436,-0.505 0.461,-0.491 0.48,-0.473C0.499,-0.455 0.513,-0.434 0.522,-0.409C0.531,-0.385 0.536,-0.358 0.536,-0.329L0.536,-0.025C0.536,-0.018 0.533,-0.012 0.529,-0.007C0.524,-0.002 0.518,-0 0.511,-0L0.395,-0C0.388,-0 0.382,-0.002 0.377,-0.007C0.372,-0.012 0.37,-0.018 0.37,-0.025L0.37,-0.06C0.361,-0.047 0.349,-0.036 0.335,-0.025C0.32,-0.015 0.303,-0.006 0.283,0C0.264,0.007 0.241,0.01 0.215,0.01ZM0.262,-0.104C0.281,-0.104 0.299,-0.108 0.315,-0.117C0.33,-0.125 0.342,-0.138 0.351,-0.156C0.36,-0.173 0.365,-0.196 0.365,-0.222L0.365,-0.236L0.28,-0.221C0.248,-0.215 0.226,-0.207 0.211,-0.196C0.197,-0.185 0.19,-0.173 0.19,-0.158C0.19,-0.147 0.193,-0.137 0.2,-0.129C0.206,-0.121 0.215,-0.115 0.226,-0.111C0.237,-0.106 0.249,-0.104 0.262,-0.104Z" style="fill:white;fill-rule:nonzero;"/>
            </g>
            <g transform="matrix(150,0,0,150,1128.89,898.744)">
                <path d="M0.084,-0C0.077,-0 0.071,-0.002 0.066,-0.007C0.061,-0.012 0.059,-0.018 0.059,-0.025L0.059,-0.495C0.059,-0.502 0.061,-0.508 0.066,-0.513C0.071,-0.518 0.077,-0.52 0.084,-0.52L0.199,-0.52C0.206,-0.52 0.212,-0.518 0.217,-0.513C0.222,-0.508 0.225,-0.502 0.225,-0.495L0.225,-0.455C0.242,-0.476 0.264,-0.492 0.289,-0.503C0.314,-0.514 0.342,-0.52 0.373,-0.52L0.417,-0.52C0.424,-0.52 0.43,-0.518 0.435,-0.513C0.44,-0.508 0.442,-0.502 0.442,-0.495L0.442,-0.392C0.442,-0.385 0.44,-0.379 0.435,-0.374C0.43,-0.369 0.424,-0.367 0.417,-0.367L0.32,-0.367C0.293,-0.367 0.271,-0.36 0.256,-0.345C0.241,-0.33 0.234,-0.308 0.234,-0.281L0.234,-0.025C0.234,-0.018 0.231,-0.012 0.226,-0.007C0.221,-0.002 0.215,-0 0.208,-0L0.084,-0Z" style="fill:white;fill-rule:nonzero;"/>
            </g>
            <g transform="matrix(150,0,0,150,1197.03,898.744)">
                <path d="M0.084,-0C0.077,-0 0.071,-0.002 0.066,-0.007C0.061,-0.012 0.059,-0.018 0.059,-0.025L0.059,-0.495C0.059,-0.502 0.061,-0.508 0.066,-0.513C0.071,-0.518 0.077,-0.52 0.084,-0.52L0.199,-0.52C0.206,-0.52 0.212,-0.518 0.217,-0.513C0.222,-0.508 0.225,-0.502 0.225,-0.495L0.225,-0.457C0.242,-0.477 0.264,-0.495 0.292,-0.509C0.32,-0.523 0.353,-0.53 0.391,-0.53C0.43,-0.53 0.463,-0.521 0.493,-0.504C0.523,-0.487 0.546,-0.461 0.563,-0.428C0.58,-0.394 0.589,-0.353 0.589,-0.304L0.589,-0.025C0.589,-0.018 0.587,-0.012 0.582,-0.007C0.577,-0.002 0.571,-0 0.564,-0L0.438,-0C0.431,-0 0.425,-0.002 0.42,-0.007C0.415,-0.012 0.413,-0.018 0.413,-0.025L0.413,-0.298C0.413,-0.329 0.405,-0.353 0.39,-0.371C0.375,-0.388 0.353,-0.396 0.324,-0.396C0.297,-0.396 0.275,-0.388 0.258,-0.371C0.242,-0.353 0.234,-0.329 0.234,-0.298L0.234,-0.025C0.234,-0.018 0.231,-0.012 0.227,-0.007C0.222,-0.002 0.216,-0 0.209,-0L0.084,-0Z" style="fill:white;fill-rule:nonzero;"/>
            </g>
            <g transform="matrix(150,0,0,150,1293.4,898.744)">
                <path d="M0.084,-0C0.077,-0 0.071,-0.002 0.066,-0.007C0.061,-0.012 0.059,-0.018 0.059,-0.025L0.059,-0.495C0.059,-0.502 0.061,-0.508 0.066,-0.513C0.071,-0.518 0.077,-0.52 0.084,-0.52L0.202,-0.52C0.209,-0.52 0.215,-0.518 0.22,-0.513C0.225,-0.508 0.227,-0.502 0.227,-0.495L0.227,-0.025C0.227,-0.018 0.225,-0.012 0.22,-0.007C0.215,-0.002 0.209,-0 0.202,-0L0.084,-0ZM0.083,-0.595C0.076,-0.595 0.07,-0.597 0.065,-0.602C0.06,-0.607 0.058,-0.613 0.058,-0.62L0.058,-0.71C0.058,-0.717 0.06,-0.723 0.065,-0.728C0.07,-0.733 0.076,-0.735 0.083,-0.735L0.203,-0.735C0.21,-0.735 0.216,-0.733 0.221,-0.728C0.226,-0.723 0.228,-0.717 0.228,-0.71L0.228,-0.62C0.228,-0.613 0.226,-0.607 0.221,-0.602C0.216,-0.597 0.21,-0.595 0.203,-0.595L0.083,-0.595Z" style="fill:white;fill-rule:nonzero;"/>
            </g>
            <g transform="matrix(150,0,0,150,1336.23,898.744)">
                <path d="M0.084,-0C0.077,-0 0.071,-0.002 0.066,-0.007C0.061,-0.012 0.059,-0.018 0.059,-0.025L0.059,-0.495C0.059,-0.502 0.061,-0.508 0.066,-0.513C0.071,-0.518 0.077,-0.52 0.084,-0.52L0.199,-0.52C0.206,-0.52 0.212,-0.518 0.217,-0.513C0.222,-0.508 0.225,-0.502 0.225,-0.495L0.225,-0.457C0.242,-0.477 0.264,-0.495 0.292,-0.509C0.32,-0.523 0.353,-0.53 0.391,-0.53C0.43,-0.53 0.463,-0.521 0.493,-0.504C0.523,-0.487 0.546,-0.461 0.563,-0.428C0.58,-0.394 0.589,-0.353 0.589,-0.304L0.589,-0.025C0.589,-0.018 0.587,-0.012 0.582,-0.007C0.577,-0.002 0.571,-0 0.564,-0L0.438,-0C0.431,-0 0.425,-0.002 0.42,-0.007C0.415,-0.012 0.413,-0.018 0.413,-0.025L0.413,-0.298C0.413,-0.329 0.405,-0.353 0.39,-0.371C0.375,-0.388 0.353,-0.396 0.324,-0.396C0.297,-0.396 0.275,-0.388 0.258,-0.371C0.242,-0.353 0.234,-0.329 0.234,-0.298L0.234,-0.025C0.234,-0.018 0.231,-0.012 0.227,-0.007C0.222,-0.002 0.216,-0 0.209,-0L0.084,-0Z" style="fill:white;fill-rule:nonzero;"/>
            </g>
            <g transform="matrix(150,0,0,150,1432.6,898.744)">
                <path d="M0.314,0.22C0.263,0.22 0.22,0.213 0.187,0.2C0.153,0.187 0.126,0.171 0.107,0.152C0.087,0.133 0.073,0.115 0.064,0.096C0.056,0.078 0.051,0.063 0.05,0.053C0.05,0.046 0.052,0.04 0.057,0.035C0.063,0.03 0.069,0.028 0.076,0.028L0.203,0.028C0.209,0.028 0.215,0.029 0.219,0.032C0.223,0.035 0.226,0.041 0.229,0.048C0.233,0.055 0.237,0.063 0.243,0.071C0.248,0.079 0.256,0.085 0.267,0.09C0.277,0.095 0.291,0.098 0.309,0.098C0.329,0.098 0.346,0.095 0.359,0.088C0.372,0.082 0.382,0.072 0.389,0.058C0.396,0.043 0.399,0.024 0.399,-0L0.399,-0.067C0.383,-0.05 0.364,-0.037 0.34,-0.026C0.316,-0.016 0.287,-0.011 0.253,-0.011C0.219,-0.011 0.189,-0.016 0.163,-0.026C0.137,-0.036 0.115,-0.051 0.098,-0.071C0.08,-0.091 0.067,-0.115 0.057,-0.144C0.047,-0.172 0.042,-0.205 0.04,-0.243C0.04,-0.26 0.04,-0.278 0.04,-0.296C0.042,-0.331 0.047,-0.363 0.057,-0.392C0.066,-0.421 0.08,-0.446 0.098,-0.466C0.115,-0.487 0.137,-0.502 0.163,-0.513C0.189,-0.524 0.219,-0.53 0.253,-0.53C0.289,-0.53 0.32,-0.523 0.346,-0.51C0.371,-0.496 0.392,-0.479 0.409,-0.458L0.409,-0.495C0.409,-0.502 0.411,-0.508 0.416,-0.513C0.421,-0.518 0.427,-0.52 0.434,-0.52L0.549,-0.52C0.556,-0.52 0.562,-0.518 0.567,-0.513C0.572,-0.508 0.575,-0.502 0.575,-0.495L0.575,-0.014C0.575,0.037 0.565,0.079 0.544,0.114C0.524,0.149 0.494,0.175 0.455,0.193C0.417,0.211 0.37,0.22 0.314,0.22ZM0.307,-0.141C0.329,-0.141 0.346,-0.146 0.359,-0.155C0.372,-0.164 0.382,-0.176 0.388,-0.191C0.395,-0.206 0.398,-0.221 0.399,-0.238C0.4,-0.245 0.4,-0.256 0.4,-0.269C0.4,-0.282 0.4,-0.292 0.399,-0.299C0.398,-0.316 0.395,-0.332 0.388,-0.347C0.382,-0.361 0.372,-0.373 0.359,-0.383C0.346,-0.392 0.329,-0.396 0.307,-0.396C0.285,-0.396 0.268,-0.392 0.255,-0.382C0.242,-0.373 0.232,-0.36 0.227,-0.344C0.221,-0.328 0.218,-0.311 0.216,-0.291C0.215,-0.276 0.215,-0.261 0.216,-0.246C0.218,-0.227 0.221,-0.209 0.227,-0.193C0.232,-0.177 0.242,-0.165 0.255,-0.155C0.268,-0.146 0.285,-0.141 0.307,-0.141Z" style="fill:white;fill-rule:nonzero;"/>
            </g>
            <g transform="matrix(150,0,0,150,1527.72,898.744)">
            </g>
        </g>
        <g transform="matrix(1,0,0,1,381.927,-1556.44)">
            <g transform="matrix(62.5,0,0,62.5,1162.16,2072.63)">
                <path d="M0.04,-0C0.033,-0 0.028,-0.002 0.024,-0.007C0.02,-0.011 0.019,-0.017 0.02,-0.024L0.159,-0.675C0.16,-0.683 0.164,-0.689 0.169,-0.693C0.175,-0.698 0.181,-0.7 0.188,-0.7L0.444,-0.7C0.483,-0.7 0.518,-0.695 0.549,-0.686C0.58,-0.677 0.606,-0.663 0.626,-0.644C0.646,-0.626 0.66,-0.602 0.667,-0.575C0.675,-0.547 0.675,-0.515 0.667,-0.478C0.651,-0.404 0.618,-0.349 0.569,-0.313C0.52,-0.276 0.454,-0.258 0.373,-0.258L0.213,-0.258L0.163,-0.024C0.162,-0.017 0.159,-0.011 0.153,-0.007C0.148,-0.002 0.141,-0 0.134,-0L0.04,-0ZM0.235,-0.369L0.376,-0.369C0.413,-0.369 0.445,-0.378 0.472,-0.397C0.499,-0.415 0.516,-0.442 0.524,-0.478C0.529,-0.501 0.53,-0.52 0.527,-0.537C0.524,-0.553 0.515,-0.566 0.5,-0.575C0.485,-0.584 0.462,-0.589 0.43,-0.589L0.282,-0.589L0.235,-0.369Z" style="fill:rgb(76,175,80);fill-rule:nonzero;"/>
            </g>
            <g transform="matrix(62.5,0,0,62.5,1203.4,2072.63)">
                <path d="M0.028,-0C0.021,-0 0.016,-0.002 0.012,-0.007C0.009,-0.011 0.007,-0.017 0.009,-0.024L0.109,-0.495C0.11,-0.502 0.114,-0.508 0.119,-0.513C0.125,-0.518 0.131,-0.52 0.138,-0.52L0.219,-0.52C0.226,-0.52 0.231,-0.518 0.235,-0.513C0.238,-0.508 0.24,-0.502 0.238,-0.495L0.229,-0.454C0.245,-0.475 0.266,-0.491 0.29,-0.503C0.315,-0.514 0.345,-0.52 0.38,-0.52L0.429,-0.52C0.436,-0.52 0.441,-0.518 0.445,-0.513C0.448,-0.509 0.449,-0.503 0.448,-0.496L0.433,-0.424C0.431,-0.417 0.428,-0.412 0.422,-0.407C0.417,-0.403 0.411,-0.4 0.404,-0.4L0.326,-0.4C0.294,-0.4 0.267,-0.391 0.246,-0.373C0.224,-0.355 0.21,-0.331 0.203,-0.299L0.144,-0.024C0.143,-0.017 0.139,-0.011 0.134,-0.007C0.128,-0.002 0.122,-0 0.115,-0L0.028,-0Z" style="fill:rgb(76,175,80);fill-rule:nonzero;"/>
            </g>
            <g transform="matrix(62.5,0,0,62.5,1229.56,2072.63)">
                <path d="M0.199,0.01C0.165,0.01 0.135,0.004 0.111,-0.008C0.087,-0.019 0.068,-0.036 0.054,-0.057C0.041,-0.078 0.032,-0.103 0.028,-0.132C0.024,-0.161 0.025,-0.193 0.03,-0.228C0.033,-0.24 0.035,-0.251 0.037,-0.26C0.039,-0.27 0.042,-0.281 0.044,-0.293C0.053,-0.326 0.064,-0.357 0.079,-0.386C0.093,-0.414 0.11,-0.44 0.131,-0.461C0.152,-0.483 0.177,-0.5 0.206,-0.512C0.234,-0.524 0.267,-0.53 0.303,-0.53C0.345,-0.53 0.376,-0.524 0.398,-0.511C0.419,-0.498 0.436,-0.482 0.448,-0.463L0.455,-0.496C0.456,-0.503 0.459,-0.509 0.465,-0.513C0.47,-0.518 0.476,-0.52 0.483,-0.52L0.562,-0.52C0.569,-0.52 0.574,-0.518 0.578,-0.513C0.582,-0.509 0.583,-0.503 0.582,-0.496L0.481,-0.024C0.48,-0.017 0.477,-0.011 0.471,-0.007C0.466,-0.002 0.46,-0 0.453,-0L0.374,-0C0.367,-0 0.362,-0.002 0.358,-0.007C0.354,-0.011 0.353,-0.017 0.354,-0.024L0.362,-0.061C0.342,-0.041 0.32,-0.023 0.296,-0.01C0.272,0.003 0.239,0.01 0.199,0.01ZM0.244,-0.097C0.272,-0.097 0.296,-0.103 0.316,-0.116C0.336,-0.129 0.352,-0.145 0.364,-0.164C0.377,-0.184 0.386,-0.204 0.391,-0.225C0.394,-0.237 0.397,-0.25 0.4,-0.264C0.403,-0.277 0.405,-0.29 0.407,-0.302C0.411,-0.322 0.411,-0.341 0.408,-0.359C0.404,-0.378 0.396,-0.393 0.382,-0.405C0.368,-0.417 0.348,-0.423 0.321,-0.423C0.295,-0.423 0.273,-0.417 0.254,-0.405C0.236,-0.392 0.221,-0.376 0.209,-0.356C0.197,-0.336 0.188,-0.314 0.18,-0.29C0.178,-0.28 0.175,-0.27 0.173,-0.26C0.171,-0.25 0.169,-0.24 0.168,-0.23C0.164,-0.206 0.164,-0.184 0.165,-0.164C0.167,-0.144 0.174,-0.128 0.187,-0.115C0.199,-0.103 0.218,-0.097 0.244,-0.097Z" style="fill:rgb(76,175,80);fill-rule:nonzero;"/>
            </g>
            <g transform="matrix(62.5,0,0,62.5,1267.44,2072.63)">
                <path d="M0.232,0.01C0.187,0.01 0.148,0.001 0.114,-0.017C0.08,-0.035 0.056,-0.061 0.04,-0.096C0.024,-0.13 0.021,-0.171 0.029,-0.22C0.031,-0.23 0.033,-0.243 0.037,-0.26C0.04,-0.276 0.043,-0.289 0.046,-0.3C0.064,-0.372 0.097,-0.429 0.146,-0.469C0.195,-0.51 0.257,-0.53 0.332,-0.53C0.374,-0.53 0.409,-0.524 0.438,-0.512C0.466,-0.5 0.488,-0.485 0.505,-0.466C0.521,-0.447 0.532,-0.428 0.538,-0.408C0.545,-0.388 0.547,-0.37 0.545,-0.354C0.544,-0.347 0.541,-0.341 0.536,-0.337C0.531,-0.332 0.525,-0.33 0.519,-0.33L0.428,-0.33C0.421,-0.33 0.416,-0.331 0.412,-0.335C0.409,-0.338 0.407,-0.343 0.406,-0.35C0.406,-0.377 0.399,-0.396 0.384,-0.408C0.37,-0.42 0.35,-0.426 0.323,-0.426C0.29,-0.426 0.261,-0.416 0.236,-0.395C0.21,-0.374 0.192,-0.34 0.18,-0.295C0.177,-0.283 0.175,-0.271 0.172,-0.258C0.169,-0.246 0.167,-0.234 0.165,-0.225C0.158,-0.179 0.161,-0.145 0.175,-0.125C0.189,-0.104 0.212,-0.094 0.245,-0.094C0.271,-0.094 0.294,-0.099 0.315,-0.111C0.335,-0.122 0.353,-0.14 0.367,-0.167C0.371,-0.174 0.375,-0.18 0.379,-0.183C0.384,-0.186 0.389,-0.187 0.396,-0.187L0.486,-0.187C0.492,-0.187 0.498,-0.185 0.501,-0.18C0.505,-0.176 0.506,-0.17 0.504,-0.163C0.499,-0.148 0.491,-0.131 0.479,-0.111C0.466,-0.092 0.449,-0.073 0.428,-0.054C0.407,-0.036 0.38,-0.02 0.347,-0.008C0.315,0.004 0.277,0.01 0.232,0.01Z" style="fill:rgb(76,175,80);fill-rule:nonzero;"/>
            </g>
            <g transform="matrix(62.5,0,0,62.5,1303.06,2072.63)">
                <path d="M0.244,-0C0.199,-0 0.164,-0.007 0.138,-0.021C0.113,-0.035 0.097,-0.056 0.089,-0.084C0.082,-0.111 0.083,-0.146 0.091,-0.187L0.14,-0.414L0.061,-0.414C0.055,-0.414 0.049,-0.417 0.046,-0.421C0.042,-0.426 0.041,-0.432 0.042,-0.439L0.054,-0.496C0.055,-0.503 0.059,-0.509 0.065,-0.513C0.07,-0.518 0.077,-0.52 0.084,-0.52L0.162,-0.52L0.198,-0.686C0.199,-0.693 0.202,-0.699 0.208,-0.703C0.213,-0.708 0.219,-0.71 0.226,-0.71L0.307,-0.71C0.314,-0.71 0.319,-0.708 0.323,-0.703C0.327,-0.699 0.328,-0.693 0.327,-0.686L0.291,-0.52L0.416,-0.52C0.423,-0.52 0.428,-0.518 0.432,-0.513C0.435,-0.509 0.436,-0.503 0.435,-0.496L0.423,-0.439C0.421,-0.432 0.418,-0.426 0.413,-0.421C0.407,-0.417 0.401,-0.414 0.394,-0.414L0.269,-0.414L0.223,-0.197C0.219,-0.179 0.217,-0.164 0.216,-0.15C0.216,-0.137 0.219,-0.127 0.227,-0.12C0.234,-0.113 0.247,-0.11 0.266,-0.11L0.338,-0.11C0.345,-0.11 0.35,-0.107 0.354,-0.103C0.357,-0.098 0.358,-0.093 0.357,-0.086L0.344,-0.024C0.342,-0.017 0.339,-0.011 0.334,-0.007C0.328,-0.002 0.322,-0 0.315,-0L0.244,-0Z" style="fill:rgb(76,175,80);fill-rule:nonzero;"/>
            </g>
            <g transform="matrix(62.5,0,0,62.5,1329.52,2072.63)">
                <path d="M0.028,-0C0.021,-0 0.016,-0.002 0.012,-0.007C0.009,-0.011 0.007,-0.017 0.009,-0.024L0.109,-0.496C0.11,-0.503 0.114,-0.509 0.119,-0.513C0.125,-0.518 0.131,-0.52 0.138,-0.52L0.221,-0.52C0.228,-0.52 0.233,-0.518 0.237,-0.513C0.24,-0.509 0.241,-0.503 0.24,-0.496L0.14,-0.024C0.138,-0.017 0.135,-0.011 0.13,-0.007C0.124,-0.002 0.118,-0 0.111,-0L0.028,-0ZM0.152,-0.606C0.146,-0.606 0.14,-0.608 0.137,-0.613C0.133,-0.617 0.132,-0.623 0.133,-0.63L0.149,-0.702C0.15,-0.709 0.153,-0.714 0.159,-0.719C0.164,-0.724 0.171,-0.726 0.178,-0.726L0.269,-0.726C0.276,-0.726 0.281,-0.724 0.285,-0.719C0.289,-0.714 0.29,-0.709 0.289,-0.702L0.273,-0.63C0.272,-0.623 0.268,-0.617 0.263,-0.613C0.257,-0.608 0.251,-0.606 0.244,-0.606L0.152,-0.606Z" style="fill:rgb(76,175,80);fill-rule:nonzero;"/>
            </g>
            <g transform="matrix(62.5,0,0,62.5,1346.03,2072.63)">
                <path d="M0.232,0.01C0.187,0.01 0.148,0.001 0.114,-0.017C0.08,-0.035 0.056,-0.061 0.04,-0.096C0.024,-0.13 0.021,-0.171 0.029,-0.22C0.031,-0.23 0.033,-0.243 0.037,-0.26C0.04,-0.276 0.043,-0.289 0.046,-0.3C0.064,-0.372 0.097,-0.429 0.146,-0.469C0.195,-0.51 0.257,-0.53 0.332,-0.53C0.374,-0.53 0.409,-0.524 0.438,-0.512C0.466,-0.5 0.488,-0.485 0.505,-0.466C0.521,-0.447 0.532,-0.428 0.538,-0.408C0.545,-0.388 0.547,-0.37 0.545,-0.354C0.544,-0.347 0.541,-0.341 0.536,-0.337C0.531,-0.332 0.525,-0.33 0.519,-0.33L0.428,-0.33C0.421,-0.33 0.416,-0.331 0.412,-0.335C0.409,-0.338 0.407,-0.343 0.406,-0.35C0.406,-0.377 0.399,-0.396 0.384,-0.408C0.37,-0.42 0.35,-0.426 0.323,-0.426C0.29,-0.426 0.261,-0.416 0.236,-0.395C0.21,-0.374 0.192,-0.34 0.18,-0.295C0.177,-0.283 0.175,-0.271 0.172,-0.258C0.169,-0.246 0.167,-0.234 0.165,-0.225C0.158,-0.179 0.161,-0.145 0.175,-0.125C0.189,-0.104 0.212,-0.094 0.245,-0.094C0.271,-0.094 0.294,-0.099 0.315,-0.111C0.335,-0.122 0.353,-0.14 0.367,-0.167C0.371,-0.174 0.375,-0.18 0.379,-0.183C0.384,-0.186 0.389,-0.187 0.396,-0.187L0.486,-0.187C0.492,-0.187 0.498,-0.185 0.501,-0.18C0.505,-0.176 0.506,-0.17 0.504,-0.163C0.499,-0.148 0.491,-0.131 0.479,-0.111C0.466,-0.092 0.449,-0.073 0.428,-0.054C0.407,-0.036 0.38,-0.02 0.347,-0.008C0.315,0.004 0.277,0.01 0.232,0.01Z" style="fill:rgb(76,175,80);fill-rule:nonzero;"/>
            </g>
            <g transform="matrix(62.5,0,0,62.5,1381.65,2072.63)">
                <path d="M0.199,0.01C0.165,0.01 0.135,0.004 0.111,-0.008C0.087,-0.019 0.068,-0.036 0.054,-0.057C0.041,-0.078 0.032,-0.103 0.028,-0.132C0.024,-0.161 0.025,-0.193 0.03,-0.228C0.033,-0.24 0.035,-0.251 0.037,-0.26C0.039,-0.27 0.042,-0.281 0.044,-0.293C0.053,-0.326 0.064,-0.357 0.079,-0.386C0.093,-0.414 0.11,-0.44 0.131,-0.461C0.152,-0.483 0.177,-0.5 0.206,-0.512C0.234,-0.524 0.267,-0.53 0.303,-0.53C0.345,-0.53 0.376,-0.524 0.398,-0.511C0.419,-0.498 0.436,-0.482 0.448,-0.463L0.455,-0.496C0.456,-0.503 0.459,-0.509 0.465,-0.513C0.47,-0.518 0.476,-0.52 0.483,-0.52L0.562,-0.52C0.569,-0.52 0.574,-0.518 0.578,-0.513C0.582,-0.509 0.583,-0.503 0.582,-0.496L0.481,-0.024C0.48,-0.017 0.477,-0.011 0.471,-0.007C0.466,-0.002 0.46,-0 0.453,-0L0.374,-0C0.367,-0 0.362,-0.002 0.358,-0.007C0.354,-0.011 0.353,-0.017 0.354,-0.024L0.362,-0.061C0.342,-0.041 0.32,-0.023 0.296,-0.01C0.272,0.003 0.239,0.01 0.199,0.01ZM0.244,-0.097C0.272,-0.097 0.296,-0.103 0.316,-0.116C0.336,-0.129 0.352,-0.145 0.364,-0.164C0.377,-0.184 0.386,-0.204 0.391,-0.225C0.394,-0.237 0.397,-0.25 0.4,-0.264C0.403,-0.277 0.405,-0.29 0.407,-0.302C0.411,-0.322 0.411,-0.341 0.408,-0.359C0.404,-0.378 0.396,-0.393 0.382,-0.405C0.368,-0.417 0.348,-0.423 0.321,-0.423C0.295,-0.423 0.273,-0.417 0.254,-0.405C0.236,-0.392 0.221,-0.376 0.209,-0.356C0.197,-0.336 0.188,-0.314 0.18,-0.29C0.178,-0.28 0.175,-0.27 0.173,-0.26C0.171,-0.25 0.169,-0.24 0.168,-0.23C0.164,-0.206 0.164,-0.184 0.165,-0.164C0.167,-0.144 0.174,-0.128 0.187,-0.115C0.199,-0.103 0.218,-0.097 0.244,-0.097Z" style="fill:rgb(76,175,80);fill-rule:nonzero;"/>
            </g>
            <g transform="matrix(62.5,0,0,62.5,1419.52,2072.63)">
                <path d="M0.028,-0C0.021,-0 0.016,-0.002 0.012,-0.007C0.009,-0.011 0.007,-0.017 0.009,-0.024L0.15,-0.686C0.151,-0.693 0.155,-0.699 0.16,-0.703C0.165,-0.708 0.171,-0.71 0.178,-0.71L0.261,-0.71C0.268,-0.71 0.273,-0.708 0.277,-0.703C0.281,-0.699 0.282,-0.693 0.281,-0.686L0.14,-0.024C0.138,-0.017 0.135,-0.011 0.13,-0.007C0.124,-0.002 0.118,-0 0.111,-0L0.028,-0Z" style="fill:rgb(76,175,80);fill-rule:nonzero;"/>
            </g>
            <g transform="matrix(62.5,0,0,62.5,1436.1,2072.63)">
            </g>
        </g>
        <g transform="matrix(1,0,0,1,381.927,-49.326)">
            <g transform="matrix(62.5,0,0,62.5,1127.47,2072.63)">
                <path d="M0.191,-0C0.184,-0 0.179,-0.002 0.175,-0.007C0.171,-0.011 0.17,-0.017 0.172,-0.024L0.29,-0.577L0.105,-0.577C0.098,-0.577 0.093,-0.579 0.089,-0.584C0.085,-0.588 0.084,-0.594 0.085,-0.601L0.101,-0.675C0.102,-0.683 0.106,-0.689 0.111,-0.693C0.117,-0.698 0.123,-0.7 0.13,-0.7L0.64,-0.7C0.648,-0.7 0.653,-0.698 0.657,-0.693C0.66,-0.689 0.661,-0.683 0.66,-0.675L0.644,-0.601C0.642,-0.594 0.639,-0.588 0.634,-0.584C0.628,-0.579 0.622,-0.577 0.615,-0.577L0.43,-0.577L0.312,-0.024C0.311,-0.017 0.308,-0.011 0.302,-0.007C0.297,-0.002 0.29,-0 0.283,-0L0.191,-0Z" style="fill:rgb(76,175,80);fill-rule:nonzero;"/>
            </g>
            <g transform="matrix(62.5,0,0,62.5,1164.06,2072.63)">
                <path d="M0.028,-0C0.021,-0 0.016,-0.002 0.012,-0.007C0.009,-0.011 0.007,-0.017 0.009,-0.024L0.15,-0.686C0.151,-0.693 0.155,-0.699 0.16,-0.703C0.165,-0.708 0.171,-0.71 0.178,-0.71L0.268,-0.71C0.275,-0.71 0.28,-0.708 0.284,-0.703C0.287,-0.699 0.289,-0.693 0.287,-0.686L0.238,-0.458C0.259,-0.48 0.283,-0.497 0.309,-0.51C0.336,-0.523 0.368,-0.53 0.405,-0.53C0.448,-0.53 0.484,-0.521 0.511,-0.503C0.539,-0.485 0.559,-0.459 0.569,-0.425C0.58,-0.392 0.58,-0.352 0.57,-0.305L0.51,-0.024C0.508,-0.017 0.505,-0.011 0.5,-0.007C0.494,-0.002 0.488,-0 0.481,-0L0.391,-0C0.385,-0 0.379,-0.002 0.375,-0.007C0.372,-0.011 0.371,-0.017 0.372,-0.024L0.43,-0.299C0.438,-0.338 0.437,-0.368 0.425,-0.39C0.413,-0.412 0.388,-0.423 0.352,-0.423C0.329,-0.423 0.308,-0.418 0.287,-0.408C0.267,-0.398 0.249,-0.384 0.235,-0.366C0.22,-0.348 0.21,-0.325 0.204,-0.299L0.146,-0.024C0.145,-0.017 0.141,-0.011 0.136,-0.007C0.131,-0.002 0.125,-0 0.118,-0L0.028,-0Z" style="fill:rgb(76,175,80);fill-rule:nonzero;"/>
            </g>
            <g transform="matrix(62.5,0,0,62.5,1203.39,2072.63)">
                <path d="M0.239,0.01C0.19,0.01 0.15,0 0.118,-0.019C0.085,-0.038 0.063,-0.066 0.051,-0.103C0.038,-0.139 0.037,-0.184 0.045,-0.236C0.046,-0.242 0.048,-0.251 0.05,-0.261C0.052,-0.272 0.054,-0.28 0.056,-0.286C0.07,-0.336 0.09,-0.38 0.118,-0.416C0.146,-0.453 0.18,-0.481 0.22,-0.501C0.261,-0.52 0.305,-0.53 0.354,-0.53C0.408,-0.53 0.451,-0.519 0.482,-0.496C0.514,-0.474 0.535,-0.443 0.545,-0.403C0.555,-0.364 0.555,-0.318 0.545,-0.266L0.54,-0.245C0.539,-0.238 0.535,-0.233 0.53,-0.228C0.524,-0.223 0.517,-0.221 0.51,-0.221L0.178,-0.221C0.178,-0.221 0.178,-0.22 0.177,-0.218C0.177,-0.216 0.177,-0.215 0.176,-0.213C0.172,-0.19 0.173,-0.169 0.177,-0.149C0.181,-0.129 0.19,-0.113 0.203,-0.101C0.217,-0.089 0.235,-0.083 0.258,-0.083C0.277,-0.083 0.293,-0.086 0.307,-0.092C0.321,-0.098 0.332,-0.104 0.342,-0.111C0.351,-0.119 0.358,-0.125 0.362,-0.129C0.37,-0.137 0.376,-0.141 0.38,-0.143C0.384,-0.145 0.39,-0.146 0.397,-0.146L0.484,-0.146C0.49,-0.146 0.495,-0.144 0.498,-0.14C0.501,-0.136 0.502,-0.131 0.501,-0.125C0.498,-0.114 0.489,-0.101 0.476,-0.086C0.463,-0.071 0.445,-0.056 0.422,-0.041C0.399,-0.026 0.372,-0.014 0.341,-0.004C0.311,0.005 0.277,0.01 0.239,0.01ZM0.196,-0.305L0.417,-0.305L0.418,-0.308C0.424,-0.334 0.425,-0.356 0.42,-0.376C0.415,-0.396 0.406,-0.411 0.391,-0.422C0.377,-0.433 0.358,-0.439 0.335,-0.439C0.311,-0.439 0.29,-0.433 0.272,-0.422C0.253,-0.411 0.238,-0.396 0.225,-0.376C0.213,-0.356 0.203,-0.334 0.197,-0.308L0.196,-0.305Z" style="fill:rgb(76,175,80);fill-rule:nonzero;"/>
            </g>
            <g transform="matrix(62.5,0,0,62.5,1239.34,2072.63)">
                <path d="M0.237,0.01C0.186,0.01 0.144,0.001 0.11,-0.018C0.077,-0.037 0.053,-0.063 0.039,-0.097C0.024,-0.131 0.021,-0.171 0.028,-0.216C0.03,-0.228 0.033,-0.243 0.036,-0.26C0.04,-0.278 0.044,-0.292 0.047,-0.304C0.059,-0.35 0.078,-0.39 0.103,-0.423C0.128,-0.457 0.159,-0.483 0.199,-0.502C0.238,-0.521 0.284,-0.53 0.337,-0.53C0.388,-0.53 0.43,-0.521 0.463,-0.502C0.497,-0.483 0.521,-0.457 0.536,-0.423C0.551,-0.39 0.554,-0.35 0.547,-0.304C0.544,-0.292 0.541,-0.278 0.538,-0.26C0.534,-0.243 0.531,-0.228 0.528,-0.216C0.516,-0.171 0.498,-0.131 0.473,-0.097C0.449,-0.063 0.417,-0.037 0.378,-0.018C0.339,0.001 0.292,0.01 0.237,0.01ZM0.247,-0.089C0.283,-0.089 0.313,-0.101 0.339,-0.123C0.364,-0.145 0.382,-0.178 0.393,-0.221C0.396,-0.231 0.399,-0.244 0.402,-0.26C0.405,-0.276 0.408,-0.289 0.41,-0.299C0.417,-0.342 0.414,-0.375 0.401,-0.397C0.388,-0.419 0.363,-0.431 0.327,-0.431C0.292,-0.431 0.261,-0.419 0.236,-0.397C0.211,-0.375 0.193,-0.342 0.182,-0.299C0.179,-0.289 0.176,-0.276 0.173,-0.26C0.169,-0.244 0.167,-0.231 0.165,-0.221C0.158,-0.178 0.161,-0.145 0.173,-0.123C0.186,-0.101 0.211,-0.089 0.247,-0.089Z" style="fill:rgb(76,175,80);fill-rule:nonzero;"/>
            </g>
            <g transform="matrix(62.5,0,0,62.5,1276.25,2072.63)">
                <path d="M0.028,-0C0.021,-0 0.016,-0.002 0.012,-0.007C0.009,-0.011 0.007,-0.017 0.009,-0.024L0.109,-0.495C0.11,-0.502 0.114,-0.508 0.119,-0.513C0.125,-0.518 0.131,-0.52 0.138,-0.52L0.219,-0.52C0.226,-0.52 0.231,-0.518 0.235,-0.513C0.238,-0.508 0.24,-0.502 0.238,-0.495L0.229,-0.454C0.245,-0.475 0.266,-0.491 0.29,-0.503C0.315,-0.514 0.345,-0.52 0.38,-0.52L0.429,-0.52C0.436,-0.52 0.441,-0.518 0.445,-0.513C0.448,-0.509 0.449,-0.503 0.448,-0.496L0.433,-0.424C0.431,-0.417 0.428,-0.412 0.422,-0.407C0.417,-0.403 0.411,-0.4 0.404,-0.4L0.326,-0.4C0.294,-0.4 0.267,-0.391 0.246,-0.373C0.224,-0.355 0.21,-0.331 0.203,-0.299L0.144,-0.024C0.143,-0.017 0.139,-0.011 0.134,-0.007C0.128,-0.002 0.122,-0 0.115,-0L0.028,-0Z" style="fill:rgb(76,175,80);fill-rule:nonzero;"/>
            </g>
            <g transform="matrix(62.5,0,0,62.5,1302.11,2072.63)">
                <path d="M0.239,0.01C0.19,0.01 0.15,0 0.118,-0.019C0.085,-0.038 0.063,-0.066 0.051,-0.103C0.038,-0.139 0.037,-0.184 0.045,-0.236C0.046,-0.242 0.048,-0.251 0.05,-0.261C0.052,-0.272 0.054,-0.28 0.056,-0.286C0.07,-0.336 0.09,-0.38 0.118,-0.416C0.146,-0.453 0.18,-0.481 0.22,-0.501C0.261,-0.52 0.305,-0.53 0.354,-0.53C0.408,-0.53 0.451,-0.519 0.482,-0.496C0.514,-0.474 0.535,-0.443 0.545,-0.403C0.555,-0.364 0.555,-0.318 0.545,-0.266L0.54,-0.245C0.539,-0.238 0.535,-0.233 0.53,-0.228C0.524,-0.223 0.517,-0.221 0.51,-0.221L0.178,-0.221C0.178,-0.221 0.178,-0.22 0.177,-0.218C0.177,-0.216 0.177,-0.215 0.176,-0.213C0.172,-0.19 0.173,-0.169 0.177,-0.149C0.181,-0.129 0.19,-0.113 0.203,-0.101C0.217,-0.089 0.235,-0.083 0.258,-0.083C0.277,-0.083 0.293,-0.086 0.307,-0.092C0.321,-0.098 0.332,-0.104 0.342,-0.111C0.351,-0.119 0.358,-0.125 0.362,-0.129C0.37,-0.137 0.376,-0.141 0.38,-0.143C0.384,-0.145 0.39,-0.146 0.397,-0.146L0.484,-0.146C0.49,-0.146 0.495,-0.144 0.498,-0.14C0.501,-0.136 0.502,-0.131 0.501,-0.125C0.498,-0.114 0.489,-0.101 0.476,-0.086C0.463,-0.071 0.445,-0.056 0.422,-0.041C0.399,-0.026 0.372,-0.014 0.341,-0.004C0.311,0.005 0.277,0.01 0.239,0.01ZM0.196,-0.305L0.417,-0.305L0.418,-0.308C0.424,-0.334 0.425,-0.356 0.42,-0.376C0.415,-0.396 0.406,-0.411 0.391,-0.422C0.377,-0.433 0.358,-0.439 0.335,-0.439C0.311,-0.439 0.29,-0.433 0.272,-0.422C0.253,-0.411 0.238,-0.396 0.225,-0.376C0.213,-0.356 0.203,-0.334 0.197,-0.308L0.196,-0.305Z" style="fill:rgb(76,175,80);fill-rule:nonzero;"/>
            </g>
            <g transform="matrix(62.5,0,0,62.5,1337.75,2072.63)">
                <path d="M0.244,-0C0.199,-0 0.164,-0.007 0.138,-0.021C0.113,-0.035 0.097,-0.056 0.089,-0.084C0.082,-0.111 0.083,-0.146 0.091,-0.187L0.14,-0.414L0.061,-0.414C0.055,-0.414 0.049,-0.417 0.046,-0.421C0.042,-0.426 0.041,-0.432 0.042,-0.439L0.054,-0.496C0.055,-0.503 0.059,-0.509 0.065,-0.513C0.07,-0.518 0.077,-0.52 0.084,-0.52L0.162,-0.52L0.198,-0.686C0.199,-0.693 0.202,-0.699 0.208,-0.703C0.213,-0.708 0.219,-0.71 0.226,-0.71L0.307,-0.71C0.314,-0.71 0.319,-0.708 0.323,-0.703C0.327,-0.699 0.328,-0.693 0.327,-0.686L0.291,-0.52L0.416,-0.52C0.423,-0.52 0.428,-0.518 0.432,-0.513C0.435,-0.509 0.436,-0.503 0.435,-0.496L0.423,-0.439C0.421,-0.432 0.418,-0.426 0.413,-0.421C0.407,-0.417 0.401,-0.414 0.394,-0.414L0.269,-0.414L0.223,-0.197C0.219,-0.179 0.217,-0.164 0.216,-0.15C0.216,-0.137 0.219,-0.127 0.227,-0.12C0.234,-0.113 0.247,-0.11 0.266,-0.11L0.338,-0.11C0.345,-0.11 0.35,-0.107 0.354,-0.103C0.357,-0.098 0.358,-0.093 0.357,-0.086L0.344,-0.024C0.342,-0.017 0.339,-0.011 0.334,-0.007C0.328,-0.002 0.322,-0 0.315,-0L0.244,-0Z" style="fill:rgb(76,175,80);fill-rule:nonzero;"/>
            </g>
            <g transform="matrix(62.5,0,0,62.5,1364.21,2072.63)">
                <path d="M0.028,-0C0.021,-0 0.016,-0.002 0.012,-0.007C0.009,-0.011 0.007,-0.017 0.009,-0.024L0.109,-0.496C0.11,-0.503 0.114,-0.509 0.119,-0.513C0.125,-0.518 0.131,-0.52 0.138,-0.52L0.221,-0.52C0.228,-0.52 0.233,-0.518 0.237,-0.513C0.24,-0.509 0.241,-0.503 0.24,-0.496L0.14,-0.024C0.138,-0.017 0.135,-0.011 0.13,-0.007C0.124,-0.002 0.118,-0 0.111,-0L0.028,-0ZM0.152,-0.606C0.146,-0.606 0.14,-0.608 0.137,-0.613C0.133,-0.617 0.132,-0.623 0.133,-0.63L0.149,-0.702C0.15,-0.709 0.153,-0.714 0.159,-0.719C0.164,-0.724 0.171,-0.726 0.178,-0.726L0.269,-0.726C0.276,-0.726 0.281,-0.724 0.285,-0.719C0.289,-0.714 0.29,-0.709 0.289,-0.702L0.273,-0.63C0.272,-0.623 0.268,-0.617 0.263,-0.613C0.257,-0.608 0.251,-0.606 0.244,-0.606L0.152,-0.606Z" style="fill:rgb(76,175,80);fill-rule:nonzero;"/>
            </g>
            <g transform="matrix(62.5,0,0,62.5,1380.72,2072.63)">
                <path d="M0.232,0.01C0.187,0.01 0.148,0.001 0.114,-0.017C0.08,-0.035 0.056,-0.061 0.04,-0.096C0.024,-0.13 0.021,-0.171 0.029,-0.22C0.031,-0.23 0.033,-0.243 0.037,-0.26C0.04,-0.276 0.043,-0.289 0.046,-0.3C0.064,-0.372 0.097,-0.429 0.146,-0.469C0.195,-0.51 0.257,-0.53 0.332,-0.53C0.374,-0.53 0.409,-0.524 0.438,-0.512C0.466,-0.5 0.488,-0.485 0.505,-0.466C0.521,-0.447 0.532,-0.428 0.538,-0.408C0.545,-0.388 0.547,-0.37 0.545,-0.354C0.544,-0.347 0.541,-0.341 0.536,-0.337C0.531,-0.332 0.525,-0.33 0.519,-0.33L0.428,-0.33C0.421,-0.33 0.416,-0.331 0.412,-0.335C0.409,-0.338 0.407,-0.343 0.406,-0.35C0.406,-0.377 0.399,-0.396 0.384,-0.408C0.37,-0.42 0.35,-0.426 0.323,-0.426C0.29,-0.426 0.261,-0.416 0.236,-0.395C0.21,-0.374 0.192,-0.34 0.18,-0.295C0.177,-0.283 0.175,-0.271 0.172,-0.258C0.169,-0.246 0.167,-0.234 0.165,-0.225C0.158,-0.179 0.161,-0.145 0.175,-0.125C0.189,-0.104 0.212,-0.094 0.245,-0.094C0.271,-0.094 0.294,-0.099 0.315,-0.111C0.335,-0.122 0.353,-0.14 0.367,-0.167C0.371,-0.174 0.375,-0.18 0.379,-0.183C0.384,-0.186 0.389,-0.187 0.396,-0.187L0.486,-0.187C0.492,-0.187 0.498,-0.185 0.501,-0.18C0.505,-0.176 0.506,-0.17 0.504,-0.163C0.499,-0.148 0.491,-0.131 0.479,-0.111C0.466,-0.092 0.449,-0.073 0.428,-0.054C0.407,-0.036 0.38,-0.02 0.347,-0.008C0.315,0.004 0.277,0.01 0.232,0.01Z" style="fill:rgb(76,175,80);fill-rule:nonzero;"/>
            </g>
            <g transform="matrix(62.5,0,0,62.5,1416.34,2072.63)">
                <path d="M0.199,0.01C0.165,0.01 0.135,0.004 0.111,-0.008C0.087,-0.019 0.068,-0.036 0.054,-0.057C0.041,-0.078 0.032,-0.103 0.028,-0.132C0.024,-0.161 0.025,-0.193 0.03,-0.228C0.033,-0.24 0.035,-0.251 0.037,-0.26C0.039,-0.27 0.042,-0.281 0.044,-0.293C0.053,-0.326 0.064,-0.357 0.079,-0.386C0.093,-0.414 0.11,-0.44 0.131,-0.461C0.152,-0.483 0.177,-0.5 0.206,-0.512C0.234,-0.524 0.267,-0.53 0.303,-0.53C0.345,-0.53 0.376,-0.524 0.398,-0.511C0.419,-0.498 0.436,-0.482 0.448,-0.463L0.455,-0.496C0.456,-0.503 0.459,-0.509 0.465,-0.513C0.47,-0.518 0.476,-0.52 0.483,-0.52L0.562,-0.52C0.569,-0.52 0.574,-0.518 0.578,-0.513C0.582,-0.509 0.583,-0.503 0.582,-0.496L0.481,-0.024C0.48,-0.017 0.477,-0.011 0.471,-0.007C0.466,-0.002 0.46,-0 0.453,-0L0.374,-0C0.367,-0 0.362,-0.002 0.358,-0.007C0.354,-0.011 0.353,-0.017 0.354,-0.024L0.362,-0.061C0.342,-0.041 0.32,-0.023 0.296,-0.01C0.272,0.003 0.239,0.01 0.199,0.01ZM0.244,-0.097C0.272,-0.097 0.296,-0.103 0.316,-0.116C0.336,-0.129 0.352,-0.145 0.364,-0.164C0.377,-0.184 0.386,-0.204 0.391,-0.225C0.394,-0.237 0.397,-0.25 0.4,-0.264C0.403,-0.277 0.405,-0.29 0.407,-0.302C0.411,-0.322 0.411,-0.341 0.408,-0.359C0.404,-0.378 0.396,-0.393 0.382,-0.405C0.368,-0.417 0.348,-0.423 0.321,-0.423C0.295,-0.423 0.273,-0.417 0.254,-0.405C0.236,-0.392 0.221,-0.376 0.209,-0.356C0.197,-0.336 0.188,-0.314 0.18,-0.29C0.178,-0.28 0.175,-0.27 0.173,-0.26C0.171,-0.25 0.169,-0.24 0.168,-0.23C0.164,-0.206 0.164,-0.184 0.165,-0.164C0.167,-0.144 0.174,-0.128 0.187,-0.115C0.199,-0.103 0.218,-0.097 0.244,-0.097Z" style="fill:rgb(76,175,80);fill-rule:nonzero;"/>
            </g>
            <g transform="matrix(62.5,0,0,62.5,1454.21,2072.63)">
                <path d="M0.028,-0C0.021,-0 0.016,-0.002 0.012,-0.007C0.009,-0.011 0.007,-0.017 0.009,-0.024L0.15,-0.686C0.151,-0.693 0.155,-0.699 0.16,-0.703C0.165,-0.708 0.171,-0.71 0.178,-0.71L0.261,-0.71C0.268,-0.71 0.273,-0.708 0.277,-0.703C0.281,-0.699 0.282,-0.693 0.281,-0.686L0.14,-0.024C0.138,-0.017 0.135,-0.011 0.13,-0.007C0.124,-0.002 0.118,-0 0.111,-0L0.028,-0Z" style="fill:rgb(76,175,80);fill-rule:nonzero;"/>
            </g>
            <g transform="matrix(62.5,0,0,62.5,1470.79,2072.63)">
            </g>
        </g>
    </g>
</svg>
